/* XPM */
static char *_e6a5012ad364c67b1974978609dee69E47VFfnlHlwbS0yL[] = {
/* columns rows colors chars-per-pixel */
"64 64 4 1 ",
"  c #B55945",
". c #D07753",
"X c #A6B04F",
"o c #EB9661",
/* pixels */
"  oooooooooooooooooooooooooooooooo  ..oooooooooo....    ..      ",
"  oooooooooooooooooooooooooooooooo  ..oooooooooo....    ..      ",
"..oooooooooooooooooooooooooooooooo..oooooooooooooooooo........  ",
"..oooooooooooooooooooooooooooooooo..oooooooooooooooooo........  ",
"..oooooooooooooooooooooooooooooooo..oooooooooooooooooooo..oooo..",
"..oooooooooooooooooooooooooooooooo..oooooooooooooooooooo..oooo..",
"..oooooooooooooooooooooooooooooooooooooooooooooooooooooooooooooo",
"..oooooooooooooooooooooooooooooooooooooooooooooooooooooooooooooo",
"  oooooooooooooooooooooooooooooo..oooooooooooooooooooooooooooooo",
"  oooooooooooooooooooooooooooooo..oooooooooooooooooooooooooooooo",
"  ..oooooooooooooooooooooooooooo..oooooooooooooooooooooooo..oooo",
"  ..oooooooooooooooooooooooooooo..oooooooooooooooooooooooo..oooo",
"..  oooooooooooooooooooooooooo..  oooooooooooooooooooooooo..  ..",
"..  oooooooooooooooooooooooooo..  oooooooooooooooooooooooo..  ..",
"oo....oooooooooooooooooooooo..    ..oooooooooooooooooooo  ..oooo",
"oo....oooooooooooooooooooooo..    ..oooooooooooooooooooo  ..oooo",
"oooo..  oooooooooooooo..oooooooo  ..oooooooooooooooooooo..oooooo",
"oooo..  oooooooooooooo..oooooooo  ..oooooooooooooooooooo..oooooo",
"oooooooo      ....oooooooooooooooo....oooooooooooooooooooooooooo",
"oooooooo      ....oooooooooooooooo....oooooooooooooooooooooooooo",
"oooooooo  ....oooooooooooooooooooooo..oooooooooooooooo..oooooooo",
"oooooooo  ....oooooooooooooooooooooo..oooooooooooooooo..oooooooo",
"oooooooo....oooooooooooooooooooooooooo..oooooooooooooo..oooooooo",
"oooooooo....oooooooooooooooooooooooooo..oooooooooooooo..oooooooo",
"oooooooo..oooooooooooooooooooooooooooo  ..oooooooooo..  ..oooooo",
"oooooooo..oooooooooooooooooooooooooooo  ..oooooooooo..  ..oooooo",
"oooooo..oooooooooooooooooooooooooooooo        ......        ....",
"oooooo..oooooooooooooooooooooooooooooo        ......        ....",
"..    ..oooooooooooooooooooooooooooooo    ..oooooooooooooooooooo",
"..    ..oooooooooooooooooooooooooooooo    ..oooooooooooooooooooo",
"oooo..  oooooooooooooooooooooooooooo  ..oooooooooooooooooooooooo",
"oooo..  oooooooooooooooooooooooooooo  ..oooooooooooooooooooooooo",
"oooooo..oooooooooooooooooooooooooo....oooooooooooooooooooooooooo",
"oooooo..oooooooooooooooooooooooooo....oooooooooooooooooooooooooo",
"oooooooo..oooooooooooooooooooooo..  oooooooooooooooooooooooooooo",
"oooooooo..oooooooooooooooooooooo..  oooooooooooooooooooooooooooo",
"oooooooooooooooooooooooooooo......oooooooooooooooooooooooooooooo",
"oooooooooooooooooooooooooooo......oooooooooooooooooooooooooooooo",
"oooooooooo..oooooooooo..oooooo..oooooooooooooooooooooooooooooooo",
"oooooooooo..oooooooooo..oooooo..oooooooooooooooooooooooooooooooo",
"oooooooooo....oooooooooooooooo..oooooooooooooooooooooooooooooooo",
"oooooooooo....oooooooooooooooo..oooooooooooooooooooooooooooooooo",
"oooooooooo..  ........oooooooooooooooooooooooooooooooooooooooooo",
"oooooooooo..  ........oooooooooooooooooooooooooooooooooooooooooo",
"oooooooooo..      ....oooooo..oooooooooooooooooooooooooooooooooo",
"oooooooooo..      ....oooooo..oooooooooooooooooooooooooooooooooo",
"oooooooo..  oooooooooo..  ..  oooooooooooooooooooooooooooooooooo",
"oooooooo..  oooooooooo..  ..  oooooooooooooooooooooooooooooooooo",
"oooooooo..oooooooooooooo..    oooooooooooooooooooooooooooooooooo",
"oooooooo..oooooooooooooo..    oooooooooooooooooooooooooooooooooo",
"oooooooooooooooooooooooooo..  oooooooooooooooooooooooooooooooooo",
"oooooooooooooooooooooooooo..  oooooooooooooooooooooooooooooooooo",
"oooooo..oooooooooooooooooooo....oooooooooooooooooooooooooooooooo",
"oooooo..oooooooooooooooooooo....oooooooooooooooooooooooooooooooo",
"oooooooooooooooooooooooooooooo..oooooooooooooooooooooooooooooooo",
"oooooooooooooooooooooooooooooo..oooooooooooooooooooooooooooooooo",
"oooo..oooooooooooooooooooooooooo..oooooooooooooooooooooooooooooo",
"oooo..oooooooooooooooooooooooooo..oooooooooooooooooooooooooooooo",
"oo....oooooooooooooooooooooooooo..  oooooooooooooooooooooooooooo",
"oo....oooooooooooooooooooooooooo..  oooooooooooooooooooooooooooo",
"..  oooooooooooooooooooooooooooooo    ..oooooooooooooooooooooo..",
"..  oooooooooooooooooooooooooooooo    ..oooooooooooooooooooooo..",
"  ..oooooooooooooooooooooooooooooo        ..oooooooooooooooo..XX",
"  ..oooooooooooooooooooooooooooooo        ..oooooooooooooooo..XX"
};
