/* XPM */
static char *e7af10bf7833461c8fe1874832e91ae7rPB08Ibm4hpdEqPi[] = {
/* columns rows colors chars-per-pixel */
"64 64 181 2 ",
"   c #161B2D",
".  c #271F2F",
"X  c #17212D",
"o  c #1C242E",
"O  c #1E2A2F",
"+  c #21242F",
"@  c #202E2F",
"#  c #262732",
"$  c #242B32",
"%  c #352B33",
"&  c #3B2D35",
"*  c #253631",
"=  c #2B3233",
"-  c #273931",
";  c #2E3F35",
":  c #323534",
">  c #3C3334",
",  c #363F35",
"<  c #3C3A34",
"1  c #412F37",
"2  c #4C2D34",
"3  c #443736",
"4  c #493735",
"5  c #433B36",
"6  c #483837",
"7  c #443038",
"8  c #4D363B",
"9  c #433B3B",
"0  c #4D3B39",
"q  c #553036",
"w  c #50373B",
"e  c #5B373A",
"r  c #533D3B",
"t  c #5A3F3C",
"y  c #613136",
"u  c #633B3B",
"i  c #753E3C",
"p  c #2D4234",
"a  c #324335",
"s  c #314B34",
"d  c #3A4A34",
"f  c #3E423C",
"g  c #3C4D39",
"h  c #365235",
"j  c #3B5536",
"k  c #3C5C37",
"l  c #3F563A",
"z  c #3E5E38",
"x  c #3F6038",
"c  c #45423A",
"v  c #4C443B",
"b  c #4C4F3A",
"n  c #56443C",
"m  c #5C423D",
"M  c #524A3D",
"N  c #5B4A3F",
"B  c #41553B",
"V  c #63443E",
"C  c #6C453F",
"Z  c #63493F",
"A  c #71443F",
"S  c #79463F",
"D  c #764D3F",
"F  c #43643A",
"G  c #48663D",
"H  c #47693B",
"J  c #4B6C3D",
"K  c #4E713E",
"L  c #51733F",
"P  c #5D4740",
"I  c #564C41",
"U  c #5B4F40",
"Y  c #545643",
"T  c #545B44",
"R  c #654640",
"E  c #6B4641",
"W  c #654B41",
"Q  c #6D4942",
"!  c #734B43",
"~  c #7B4C43",
"^  c #655745",
"/  c #6E5444",
"(  c #675845",
")  c #745245",
"_  c #7C5246",
"`  c #5D6047",
"'  c #536D42",
"]  c #5F6348",
"[  c #537540",
"{  c #5A7444",
"}  c #567941",
"|  c #5A7D43",
" . c #6B6D4B",
".. c #607E45",
"X. c #667A49",
"o. c #6E784D",
"O. c #71754E",
"+. c #767A50",
"@. c #7A7E52",
"#. c #87453E",
"$. c #824E44",
"%. c #8A4D41",
"&. c #904F41",
"*. c #9B4D41",
"=. c #845245",
"-. c #8C5144",
";. c #855748",
":. c #855948",
">. c #8B5C49",
",. c #945345",
"<. c #9C5445",
"1. c #925F4B",
"2. c #9B5948",
"3. c #A45645",
"4. c #AB5544",
"5. c #AF5845",
"6. c #B15744",
"7. c #B55945",
"8. c #B85A45",
"9. c #97644D",
"0. c #9C654E",
"q. c #9F684E",
"w. c #A1674E",
"e. c #AE644C",
"r. c #A1694F",
"t. c #B6674C",
"y. c #B8694E",
"u. c #A56C51",
"i. c #AB6E51",
"p. c #AD7052",
"a. c #B47353",
"s. c #BD7A56",
"d. c #C77050",
"f. c #CD7351",
"g. c #C37D57",
"h. c #D07753",
"j. c #5D8144",
"k. c #638446",
"l. c #628846",
"z. c #678748",
"x. c #6C854A",
"c. c #6C8A4A",
"v. c #70844C",
"b. c #738E4D",
"n. c #76904E",
"m. c #79924F",
"M. c #7D8752",
"N. c #7C9451",
"B. c #808354",
"V. c #8B8F58",
"C. c #829653",
"Z. c #859A54",
"A. c #8B9D56",
"S. c #8E9459",
"D. c #8E9F58",
"F. c #909459",
"G. c #979C5C",
"H. c #9A9F5D",
"J. c #8FA058",
"K. c #93A25A",
"L. c #99A55C",
"P. c #9EA95E",
"I. c #A6B04F",
"U. c #A0A65F",
"Y. c #A1AB5F",
"T. c #A1A560",
"R. c #A5AD61",
"E. c #A8AF62",
"W. c #ADB264",
"Q. c #B4B966",
"!. c #C78058",
"~. c #CC8359",
"^. c #D1865B",
"/. c #D78A5C",
"(. c #D98B5C",
"). c #DC8B5D",
"_. c #DD8E5E",
"`. c #E18C5D",
"'. c #E3915F",
"]. c #E69360",
"[. c #EB9661",
/* pixels */
"7.7.[.[.[.[.[.[.[.[.[.[.[.[.[.[.[.[.[.[.[.[.[.[.[._.a.& = W (.[.a.a.#.6.h.C # c g.[.[.[.[.[.[.[.h.h.h.h.7.7.7.7.h.h.7.7.7.7.7.7.",
"7.7.[.[.[.[.[.[.[.[.[.[.[.[.[.[.[.[.[.[.[.[.[.[.0./ ; a P.V.) :.Y Y # y h.A +.U.^ g.[.[.[.[.[.[.h.h.h.h.7.7.7.7.h.h.7.7.7.7.7.7.",
"h.h.[.[.[.[.[.[.[.[.[.[.[.[.[.[.[.[.[.[.[.g.V V g G m.K.W.Q.V.O.W.Q.V. .R % @.Q.H.^ V R m a.[.[.[.[.[.[.[.[.h.h.h.h.h.h.h.h.7.7.",
"h.h.[.[.[.[.[.[.[.[.[.[.[.[.[.[.[.[.[._.m c ' ' k.b.E.Q.W.W.W.Q.W.W.Q.W.M.J D.W.Q.]  .F.T >.[.[.[.[.[.[.[.[.h.h.h.h.h.h.h.h.7.7.",
"h.h.[.[.[.[.[.[.[.[.[.[.[.[./.p.i.s.(./ X.U.W.W.P.Z.W.W.W.W.W.W.W.W.W.W.W.J.L.W.W.E.W.Q.O.>.[.[.[.[.[.[.[.[.[.[.h.h.[.[.[.[.h.h.",
"h.h.[.[.[.[.[.[.[.[.[.[.[.[.0.$ a c / V.Q.W.W.W.W.W.L.Y.W.W.W.W.W.W.W.W.W.W.W.W.W.W.W.U.f 1.[.:.;.~.[.[.[.[.[.[.h.h.[.[.[.[.h.h.",
"h.h.[.[.[.[.[.[.[.[.[.[.[.[.0.g l.} o.Q.W.W.W.W.W.W.P.E.W.W.W.W.W.W.W.W.W.W.W.W.W.W.W.T.+.( m l - 0.[.[.[.[.[.[.[.[.[.[.[.[.[.[.",
"h.h.[.[.[.[.[.[.[.[.[._.~./.i.g k.k.N.W.W.W.W.W.W.W.W.W.W.W.W.W.W.W.W.W.W.W.W.W.W.W.W.W.Q.L.X.k.a ;./.[.[.[.[.[.[.[.[.[.[.[.[.[.",
"7.7.[.[.[.[.[.[.[.[.[.;.: I w.N C.P.A.W.W.W.W.W.W.W.W.W.W.W.W.W.W.W.W.W.W.W.W.W.W.W.W.W.W.W.W.S.f f & '.[.[.[.[.[.[.[.[.[.[.[.[.",
"7.7.[.[.[.[.[.[.[.[.[._ @.R.` { L.W.W.W.W.W.W.W.W.W.W.W.W.W.W.W.W.W.W.W.W.W.W.W.W.W.W.W.W.W.W.W.W.E.9 '.[.[.[.[.[.[.[.[.[.[.[.[.",
"7.7.f.f.[.[.[.[.[.[.[.;.+.Q.Q.Y.E.W.W.W.W.W.W.W.W.W.W.W.W.W.W.W.W.W.W.W.W.W.W.W.W.W.W.W.W.W.W.W.W. .9.[.[.[.[.[.[.[.h.h.[.[.[.[.",
"7.7.f.f.[.[.[.[.[.[.[.`.P G.W.W.W.W.W.W.W.W.W.W.W.W.W.W.W.W.W.W.W.W.W.P.Z.W.W.W.W.W.W.W.W.W.W.W.W.H.U ~.[.[.[.[.[.[.h.h.[.[.[.[.",
"f.f.7.7.[.[.[.[.[.[.[.~.v H.W.W.W.W.W.W.W.W.W.W.W.W.W.W.W.W.W.W.W.W.W.n.E.W.W.W.W.W.W.W.W.W.W.W.W.L.{ M w.(.[.[.[.[.h.h.7.7.h.h.",
"f.f.7.7.[.[.[.[.[.[.~.M v.W.W.W.W.R.K.W.W.W.W.W.W.W.W.W.W.W.W.W.W.W.W.c.A.W.W.W.W.W.W.W.W.W.W.W.W.K.A.x.p m ! r.[.[.h.h.7.7.h.h.",
"[.[.h.h.h.h.[.[.:.0 & T W.W.K.K.Q.K.m.W.E.W.K.L.W.W.W.W.W.W.W.W.W.W.A.K.A.K.W.W.W.W.W.W.W.W.W.W.W.W.Q.W.n.h - t 7.7.h.h.[.[.[.[.",
"[.[.h.h.h.h.[.[.m B.C.b.W.K.k.C.P.n.c.n.z.z.A.W.W.W.W.W.W.W.W.W.W.W.E.W.W.E.W.W.W.W.W.W.W.W.W.E.E.Q.W.W.N.J a _ 7.7.h.h.[.[.[.[.",
"[.[.[.[.h.h.7.7.:. .C.z.P.N.j.j.n.E.W.W.C.b.W.W.W.W.W.W.W.W.W.W.W.W.W.W.W.W.W.W.W.W.W.W.W.W.W.Y.Z.J.K.P.N...> ].h.h.[.[.[.[.[.[.",
"[.[.[.[.h.h.7.7.).> k.P.W.Y.c.A.E.W.W.W.E.n.W.W.W.W.W.W.W.W.W.W.W.W.W.W.W.W.W.W.W.W.W.W.W.W.W.W.P.z.z.W.W.b.B 9.h.h.[.[.[.[.[.[.",
"[.[.[.[.[.[.`.`.4.> L.Q.E.E.R.Q.W.W.W.W.W.Y.W.W.W.W.W.W.W.W.W.W.W.W.W.W.W.W.W.W.W.W.W.W.W.W.W.W.W.Y.K.A.W.P.' m [.[.[.[.[.[.[.[.",
"[.[.[.[.[.[.`.`.q ' L.P.Z.E.W.W.W.W.W.W.W.W.W.W.W.W.W.W.W.W.W.W.W.W.W.W.W.W.W.W.W.W.W.W.W.W.W.W.W.W.W.E.R.K.{ n (.[.[.[.[.[.[.[.",
"[.[.[.[.[.[.[.[.2 J j.j.K.W.W.W.W.W.W.W.W.W.W.W.W.W.W.W.W.W.W.W.W.W.W.W.W.W.W.W.W.W.W.W.W.W.K.W.W.W.W.W.K.N.k.l >.[.[.[.[.[.[.[.",
"[.[.[.[.[.[.[.[.2 J j.b.E.W.W.W.W.W.W.W.W.W.W.W.W.W.W.W.W.W.W.W.W.W.W.W.W.W.W.W.W.W.W.W.W.J.A.W.W.W.W.W.W.W.A.B :.[.[.[.[.[.[.[.",
"[.[.[.[.[.[.& > a } b.E.E.W.W.W.W.W.W.W.W.W.W.W.W.W.W.W.W.W.W.W.W.W.W.W.W.W.W.W.W.W.W.W.D.k.P.W.W.W.W.W.W.W.R.B :.[.[.[.[.[.[.[.",
"[.[.[.[.[.[.X j k } c.R.A.E.W.W.W.W.W.W.W.W.W.W.W.W.W.W.W.W.W.W.W.W.W.W.W.W.W.W.W.W.W.R.b.b.K.W.W.W.W.W.W.W.K.l :.[.[.[.[.[.[.[.",
"[.[.[.[.[.[.m s z } z.K.W.W.W.W.W.W.W.L.E.E.A.Y.W.W.W.W.W.W.W.W.W.W.W.W.W.W.W.W.W.W.W.W.W.W.D.W.W.W.W.W.W.W.C.l ~ h.[.[.[.[.[.[.",
"[.[.[.[.[.[./.Z l | n.W.W.W.W.W.W.W.W.N.b.b.b.E.W.W.W.W.W.W.W.W.W.W.W.W.W.W.W.W.W.W.W.W.W.W.W.W.W.W.W.W.W.W.R.B ~ h.[.[.[.[.[.[.",
"[.[.[.[.[.[.h.~ l j.b.W.E.W.W.W.W.N.E.C.k.L.E.W.W.W.W.W.W.W.W.W.W.W.W.W.W.W.E.L.C.W.W.W.W.W.W.W.Z.A.W.Q.A.K.L.L : #.7.7.h.h.h.h.",
"[.[.[.[.[.[.h.~ p | c.K.n.R.Q.W.L.k.A.W.Z.W.W.W.W.W.W.W.W.W.W.W.W.W.W.W.W.W.Z.k.Z.W.W.W.W.W.W.P.n.n.K.K.n.j.k.L k o 7.7.h.h.h.h.",
"h.h.7.7.7.7.f.S * } j.| j.C.Z.Z.z.Z.W.W.W.W.W.W.W.W.W.W.W.W.W.W.W.W.W.W.W.W.W.K.W.W.W.W.W.W.W.W.W.W.Z.z.Z.z.j.G *   [.[.[.[.[.[.",
"h.h.7.7.7.7.f.S l k.j.m.K.c.K.n.k.E.W.W.W.W.W.W.W.W.W.W.W.W.W.W.W.W.W.W.W.W.W.W.W.W.W.W.W.W.W.W.W.W.R.N.Q.L.j.z X _ [.[.[.[.[.[.",
"[.[.[.[.h.h.7.i B | b.E.Q.E.W.E.c.z.A.W.W.W.W.W.W.W.W.W.W.W.W.W.W.W.W.W.W.W.W.N.R.W.W.W.W.W.W.W.W.W.W.Y.E.W.k.k : s.[.[.[.[.[.[.",
"[.[.[.[.h.h.7.*.v [ n.Q.P.W.W.W.b.N.W.W.W.W.W.W.Q.E.Y.W.W.W.W.W.W.W.W.W.W.W.W.z.A.W.W.W.W.W.W.W.W.W.W.K.N.K.j.p :.[.[.[.[.[.[.[.",
"[.[.[.[.[.[.y.0 s J z.Z.c.Y.W.K.z.E.W.W.W.W.W.W.A.b.Z.W.W.W.W.W.W.W.W.W.W.W.D.c.W.W.W.W.W.W.W.W.W.K.E.K.[ } [ c s.[.[.[.[.[.[.[.",
"[.[.[.[.[.[.2.@ k z | j.j.b.n.z.j.C.W.W.W.W.W.W.K.j.c.P.W.W.W.W.W.W.W.W.W.W.n.z.E.W.W.W.W.W.W.W.W.m.c.c.J F j V [.[.[.[.[.[.[.[.",
"[.[.[.[.[.[.a.% % o } j.j.j.j.J | P.W.W.N.E.W.W.E.N.R.W.W.W.W.W.W.W.W.W.W.W.R.z.z.D.Q.W.K.Z.W.Q.E.b.j.j.| H p ) [.[.[.[.[.[.[.[.",
"[.[.[.[.[.[.`.).f.u j j.} | j.[ | E.Q.P.c.E.W.W.W.W.W.W.W.W.W.W.L.W.W.K.K.W.W.z.j.m.E.Q.D.j.Z.K.N.j.} j.j.F % '.[.[.[.[.[.[.[.[.",
"[.[.[.[.[.[.[.[.[.^.= J F | } } k.N.C.z.z.E.W.W.A.W.W.W.W.W.W.W.A.C.N.z.K.L.N.j.L j.n.C.b.j.j.j.j.j.H j.} a >.[.[.[.[.[.[.[.[.[.",
"[.[.[.[.[.[.[.[.[.^.= k z F J | j.j.j.j.z.R.E.C.z.W.W.W.Y.Z.W.Q.L.n.K.b.W.R.c.} H j.j.| | j.j.j.j.j.F H p :.[.[.[.[.[.[.[.[.[.[.",
"[.[.[.[.[.[.[.[.[.[.-.- z k H j.| j.j.j.j.z.z.j.z.Y.W.W.K.j.Z.P.A.C.Q.b.P.Q.m.} z K j.} J j.j.| j.j.F k : s.[.[.[.[.[.[.[.[.[.[.",
"[.[.[.[.[.[.[.[.[.[.e.< h z F L H | j.j.j.j.j.j.j.c.D.A.k.j.j.j.j.b.D.z.z.D.c.} z K j.| L j.| H L L z , i.[.[.[.[.[.[.[.[.[.[.[.",
"[.[.[.[.[.[.[.[.[.[.h.e.< j z k z | j.j.j.j.j.j.j.j.j.j.j.j.j.j.j.j.j.j.j.j.j.| z F | | [ j.| z k z h r [.[.[.[.[.[.[.[.[.[.[.[.",
"[.[.[.[.[.[.[.[.[.[.h.h.e.> j z z } | K | j.j.j.j.j.j.K } | | j.j.j.j.j.| j.j.| z J | F H | H z z z z a 9.[.[.[.[.[.[.[.[.[.[.[.",
"[.[.[.[.[.[.[.[.[.[.h.h.7.*.5 h z H F K j.j.j.j.j.j.j.| F F [ j.j.j.j.| H | j.L H j.| H z z z z z k s * _ [.[.[.[.[.[.[.[.[.[.[.",
"[.[.[.[.[.[.[.[.[.[.h.h.7.4.m s x | L H | | } j.j.j.j.j.J J j.j.j.j.j.| J J J z F } j.} z z z h s z + R p.[.[.[.[.[.[.[.[.[.[.[.",
"[.[.[.[.[.[.[.[.[.[.h.h.7.*.O z z H H k H H J j.j.} [ j.} J j.| K j.j.j.j.} F J J J j.J z z j c Z O % ].[.[.[.[.[.[.[.[.[.[.[.[.",
"[.[.[.[.[.[.[.[.[.[.h.h.7.*.. o s k h k z k J | } F J | } z H H F | | J | j.H } L z F z z z = g.(.s.!.[.[.[.[.[.[.[.[.[.[.[.[.[.",
"[.[.[.[.[.[.[.[.h.h.7.7.[.[.'.R * a 0 , s z z z z z z z z k K | z z z z H } H z z z s s z s r '.[.[.[.[.[.[.[.[.[.[.[.[.[.[.[.[.",
"[.[.[.[.[.[.[.[.h.h.7.7.[.[.[.i.Q >.[.u.V * s z z z z z z z H J z z z z z z z z z s n   * n /.[.[.[.[.[.[.[.[.[.[.[.[.[.[.[.[.[.",
"[.[.[.[.[.[.[.[.h.h.[.[.[.[.[.[.[.[.[.[.[.i.W O a k k z z z k k z z z z k k k z s W (.i.0.^.[.[.[.[.[.[.[.[.[.[.[.[.[.[.[.[.[.[.",
"[.[.[.[.[.[.[.[.h.h.[.[.[.[.[.[.[.[.[.[.[.[.'.8 % 5 5 j z j j j j j j j < < < : r '.[.[.[.[.[.[.[.[.[.[.[.[.[.[.[.[.[.[.[.[.[.[.",
"[.[.[.[.[.[.[.[.[.[.[.[.[.[.[.[.[.[.[.[.[.[.[.t % 0 ! b d 3 0 0 > > 6 0 0 3 > 3 r ~.[.[.[.[.[.[.[.[.[.[.[.[.[.[.[.[.[.[.[.[.[.[.",
"[.[.[.[.[.[.[.[.[.[.[.[.[.[.[.[.[.[.[.[.[.[.s.> > 3 t 3 r C ,.~ r 6 E ! ! m r -.w ;.[.[.[.[.[.[.[.[.[.[.[.[.[.[.[.[.[.[.[.[.[.[.",
"[.[.[.[.[.[.h.h.[.[.[.[.[.[.[.[.[.[.[.[.[.s.w m 6 V r > Q -.7.$.V r ! <.,.r V =.Q w g.[.[.[.[.[.[.[.[.[.[.[.[.[.[.[.[.[.[.[.[.[.",
"[.[.[.[.[.[.h.h.[.[.[.[.[.[.[.[.[.[.[.[.(.8 Q ! t 5.-.0 V $.=.V 6 r ! 3.&.3 m ~ 7.u 9.[.[.[.[.[.[.[.[.[.[.[.[.[.[.[.[.[.[.[.[.[.",
"[.[.[.[.[.[.[.[.[.[.[.[.[.[.[.[.[.[.[.[._.! ! R ! <.-.0 V 7.7.5.R 3 ! -.-.V > ! 3.7.e r.[.[.[.[.[.[.[.[.[.[.[.[.[.[.[.[.[.[.[.[.",
"[.[.[.[.[.[.[.[.[.[.[.[.[.[.[.[.[.[.[.[.].s._ w -.-.V 3 ! <.7.<.R r <.8.8.%.3 r ~ ,.! 1 [.[.[.[.[.[.[.[.[.[.[.[.[.[.[.[.[.[.[.[.",
"[.[.[.[.h.h.[.[.[.[.[.[.[.[.[.[.[.[.[.[.[.[.>.i 8.<.r m <.4.7.3.V r ~ -.3.$.0 & i.) _ a.[.[.[.[.[.[.[.[.[.[.[.[.[.[.[.[.[.[.[.[.",
"[.[.[.[.h.h.[.[.[.[.[.[.[.[.[.[.[.[.[.[.[.[.'.d.t.! r <.7.7.7.5.4 0 ! 3.7.5.$.7 !._.`.[.[.[.[.[.[.[.[.[.[.[.[.[.[.[.[.[.[.[.[.[.",
"[.[.h.h.h.h.[.[.[.[.[.[.[.[.[.[.[.[.[.[.[.[.[.[.[.q.1 3.8.7.7.<.D D ! <.7.7.7.C t [.[.[.[.[.[.[.[.[.[.[.[.[.[.[.[.[.[.[.[.[.[.[.",
"[.[.h.h.h.h.[.[.[.[.[.[.[.[.[.[.[.[.[.[.[.[.[.[.[.^._ -.-.-.,.a.h.h.3.~ <.7.7._ p.[.[.[.[.[.[.[.[.[.[.[.[.[.[.[.[.[.[.[.[.[.[.[.",
"f.f.7.7.[.[.[.[.[.[.[.[.[.[.[.[.[.[.[.[.[.[.[.[.[.[._.:.! ! u.[.[.[.7.3.~ $.=.y.[.[.[.[.[.[.[.[.[.[.[.[.[.[.[.[.[.[.[.[.[.[.h.h.",
"f.f.7.7.[.[.[.[.[.[.[.[.[.[.[.[.[.[.[.[.[.[.[.[.[.[.[.[.[.[.[.[.[.[.7.7.7.7.h.h.[.[.[.[.[.[.[.[.[.[.[.[.[.[.[.[.[.[.[.[.[.[.h.h.",
"7.7.f.f.[.[.[.[.[.[.[.[.[.[.[.[.[.[.[.[.[.[.[.[.[.[.[.[.[.[.[.[.[.[.7.7.7.7.7.7.7.7.h.h.[.[.[.[.[.[.[.[.[.[.[.[.[.[.[.[.h.h.I.I.",
"7.7.f.f.[.[.[.[.[.[.[.[.[.[.[.[.[.[.[.[.[.[.[.[.[.[.[.[.[.[.[.[.[.[.7.7.7.7.7.7.7.7.h.h.[.[.[.[.[.[.[.[.[.[.[.[.[.[.[.[.h.h.I.I."
};
