/* XPM */
static char *ab37293f207448f79c59ef8c0fd2dc33TmlgVR8rlBJTgTQq[] = {
/* columns rows colors chars-per-pixel */
"64 64 6 1 ",
"  c #0C0F2A",
". c #734C44",
"X c #B55945",
"o c #D07753",
"O c #A6B04F",
"+ c #EB9661",
/* pixels */
"XX++++++++++++++++++++++++++++++++XXoo++++++++++ooooXXXXooXXXXXX",
"XX++++++++++++++++++++++++++++++++XXoo++++++++++ooooXXXXooXXXXXX",
"oo++++++++++++++++++++++++++++++++oo++++++++++++++++++ooooooooXX",
"oo++++++++++++++++++++++++++++++++oo++++++++++++++++++ooooooooXX",
"oo++++++++++++++++++++++++++++++++oo++++++++++++++++++++oo++++oo",
"oo++++++++++++++++++++++++++++++++oo++++++++++++++++++++oo++++oo",
"oo++++++++++++++++++++++++++++++++++++++++++++++++++++++++++++++",
"oo++++++++++++++++++++++++++++++++++++++++++++++++++++++++++++++",
"XX++++++++++++++++++++++++++++++oo++++++++++++++++++++++++++++++",
"XX++++++++++++++++++++++++++++++oo++++++++++++++++++++++++++++++",
"XXoo++++++++++++++++++++++++++++oo++++++++++++++++++++++++oo++++",
"XXoo++++++++++++++++++++++++++++oo++++++++++++++++++++++++oo++++",
"ooXX++++++++++++++++++++++++++ooXX++++++++++++++++++++++++ooXXoo",
"ooXX++++++++++++++++++++++++++ooXX++++++++++++++++++++++++ooXXoo",
"++oooo++++++++++++++++++++++oo     o++++++++++++++++++++XXoo++++",
"++oooo++++++++++++++++++++++oo     o++++++++++++++++++++XXoo++++",
"++++ooXX++++++++++++++oo++    ooooo    +++++++++++++++++oo++++++",
"++++ooXX++++++++++++++oo++    ooooo    +++++++++++++++++oo++++++",
"++++++++XXXXXXoooo++++    ooooooooooooo    +++++++++++++++++++++",
"++++++++XXXXXXoooo++++    ooooooooooooo    +++++++++++++++++++++",
"++++++++XXoooo++++    ooooooooooooooooooooo    +++++++oo++++++++",
"++++++++XXoooo++++    ooooooooooooooooooooo    +++++++oo++++++++",
"++++++++oooo++    ooooooooooooooooooooooooooooo  +++++oo++++++++",
"++++++++oooo++    ooooooooooooooooooooooooooooo  +++++oo++++++++",
"++++++++oo++  oooooooooooooooooooooooooooooXXXX  +++ooXXoo++++++",
"++++++++oo++  oooooooooooooooooooooooooooooXXXX  +++ooXXoo++++++",
"++++++oo++++  ....oooooooooooooooooooooXX..XXXX  oooXXXXXXXXoooo",
"++++++oo++++  ....oooooooooooooooooooooXX..XXXX  oooXXXXXXXXoooo",
"ooXXXXoo++++  ........ooooooooooooo..XXXX..XXXX  +++++++++++++++",
"ooXXXXoo++++  ........ooooooooooooo..XXXX..XXXX  +++++++++++++++",
"++++ooXX++++  ............oooooXXXX..XXXX..XXXX  +++++++++++++++",
"++++ooXX++++  ............XXXX.XXXX..XXXXXXXXXX  +++++++++++++++",
"++++++oo++++  ............XXXX.XXXX..XXXXXXXXXX  +++++++++++++++",
"++++++oo++++  ............XXXX.XXXXXXXXXX..XXXX  +++++++++++++++",
"++++++++oo++  ............XXXX.XXXXXXXXXX..XXXX  +++++++++++++++",
"++++++++oo++  ............XXXX.XXXX..XXXXXXXXXX  +++++++++++++++",
"++++++++++++  ............XXXX.XXXX..XXXXXXXXXX  +++++++++++++++",
"++++++++++++  ............XXXX.XXXX..XXXX..XXXX  +++++++++++++++",
"++++++++++oo  ............XXXX.XXXX..XXXX..XXXX  +++++++++++++++",
"++++++++++oo  ............XXXX.XXXX..XXXX..XX+++++++++++++++++++",
"++++++++++oo  ............XXXX.XXXX..XXXX..XX+++++++++++++++++++",
"++++++++++oooo............XXXXXXXXX..XXXX+++++++++++++++++++++++",
"++++++++++ooXX............XXXXXXXXX..XXXX+++++++++++++++++++++++",
"++++++++++ooXXoooo........XXXX.XXXX..+++++++++++++++++++++++++++",
"++++++++++ooXXXXXX........XXXX.XXXX..+++++++++++++++++++++++++++",
"++++++++++ooXXXXXXoooo....XXXX.XX+++++++++++++++++++++++++++++++",
"++++++++ooXX++++++++++....XXXX.XX+++++++++++++++++++++++++++++++",
"++++++++ooXX++++++++++ooXXXXXX++++++++++++++++++++++++++++++++++",
"++++++++oo++++++++++++++ooXXXX++++++++++++++++++++++++++++++++++",
"++++++++oo++++++++++++++ooXXXX++++++++++++++++++++++++++++++++++",
"++++++++++++++++++++++++++ooXX++++++++++++++++++++++++++++++++++",
"++++++++++++++++++++++++++ooXX++++++++++++++++++++++++++++++++++",
"++++++oo++++++++++++++++++++oooo++++++++++++++++++++++++++++++++",
"++++++oo++++++++++++++++++++oooo++++++++++++++++++++++++++++++++",
"++++++++++++++++++++++++++++++oo++++++++++++++++++++++++++++++++",
"++++++++++++++++++++++++++++++oo++++++++++++++++++++++++++++++++",
"++++oo++++++++++++++++++++++++++oo++++++++++++++++++++++++++++++",
"++++oo++++++++++++++++++++++++++oo++++++++++++++++++++++++++++++",
"++oooo++++++++++++++++++++++++++ooXX++++++++++++++++++++++++++++",
"++oooo++++++++++++++++++++++++++ooXX++++++++++++++++++++++++++++",
"ooXX++++++++++++++++++++++++++++++XXXXoo++++++++++++++++++++++oo",
"ooXX++++++++++++++++++++++++++++++XXXXoo++++++++++++++++++++++oo",
"XXoo++++++++++++++++++++++++++++++XXXXXXXXoo++++++++++++++++ooOO",
"XXoo++++++++++++++++++++++++++++++XXXXXXXXoo++++++++++++++++ooOO"
};
