/* XPM */
static char *_1622140cba24d3bd361ccb1c2eadc8e5g66DD1KPv3c8Sq6[] = {
/* columns rows colors chars-per-pixel */
"64 64 8 1 ",
"  c #0C0F2A",
". c #303843",
"X c #B55945",
"o c #D07753",
"O c #A6B04F",
"+ c #EB9661",
"@ c #D4C692",
"# c #FEE1B8",
/* pixels */
"XX++++++++++++++++++++++++++++++++XXoo++++++++++ooooXXXXooXXXXXX",
"XX++++++++++++++++++++++++++++++++XXoo++++++++++ooooXXXXooXXXXXX",
"oo++++++++++++++++++++++++++++++++oo++++++++++++++++++ooooooooXX",
"oo++++++++++++++++++++++++++++++++oo++++++++++++++++++ooooooooXX",
"oo++++++++++++++++++++++++++++++++oo++++++++++++++++++++oo++++oo",
"oo++++++++++++++++++++++++++++++++oo++++++++++++++++++++oo++++oo",
"oo++++++++++++++++++++++++++++++++++++++++++++++++++++++++++++++",
"oo++++++++++++++++++++++++++++++++++++++++++++++++++++++++++++++",
"XX++++++++++++++++++++++++++++++oo++++++++++++++++++++++++++++++",
"XX++++++++++++++++++++++++++++++oo++++++++++++++++++++++++++++++",
"XXoo++++++++++++++++++++++++++++oo++++++++++++++++++++++++oo++++",
"XXoo++++++++++++++++++++++++++++oo++++++++++++++++++++++++oo++++",
"ooXX++++++++++++++++++++++++++ooXX++++++++++++++++++++++++ooXXoo",
"ooXX++++++++++++++++++++++++++ooXX++++++++++++++++++++++++ooXXoo",
"++oooo++++++++++++++++++++++ooXXXXoo++++++++++  ++++++++XXoo++++",
"++oooo++++++++++++++++++++++ooXXXXoo+++++++   ## +++++++XXoo++++",
"++++ooXX++++++++++++++oo++++++++XXoo+++    ##### +++++++oo++++++",
"++++ooXX++++++++++++++oo++++++++X      ######### +++++++oo++++++",
"++++++++XXXXXXoooo+++++++        ############@## +++++++++++++++",
"++++++++XXXXXXo          ##################@@### +++++++++++++++",
"++++++++XXoooo @@########################@@@#### +++++oo++++++++",
"++++++++XXoooo @@@####################@@@@@###### ++++oo++++++++",
"++++++++oooo++ @@@##@@@@@#########@@@@@@@@####### ++++oo++++++++",
"++++++++oooo+ @@@@####@@@@@@@@@@@@@@@@@@#####@### ++++oo++++++++",
"++++++++oo+++ @@@@######@@@@@@@@@@@@@######@@#### ++ooXXoo++++++",
"++++++++oo+++ @@@@#########@@@@@@########@@@###### +ooXXoo++++++",
"++++++oo++++ @@.@@##@##################@@@######## oXXXXXXXXoooo",
"++++++oo++++ @@.@@####@@@######################### oXXXXXXXXoooo",
"ooXXXXoo++++ @@.@@######@@@@####################### ++++++++++++",
"ooXXXXoo+++ @@@.@@################################# ++++++++++++",
"++++ooXX+++ @@..@@################################## +++++++++++",
"++++ooXX++ @@@..@@@########################@######## +++++++++++",
"++++++oo++ @@@..@@@#####################@@########### ++++++++++",
"+++   oo+ @@@...@@@######@@#########@@@############## +++   ++++",
"+++ XX +o @@@...@@@#########@@@@@@@################### + XX ++++",
"+++ XX + @@@@...@@@#################################### XXX ++++",
"++++ XX @@@@....@@@@###################################XXX +++++",
"++++ XX@@@@@.....@@@###################################XX+++++++",
"+++++X@@@@@......@@@##################################++++++++++",
"++++++@@@@@......@@@###############################+++++++++++++",
"++++++++@@.......@@@@###########################++++++++++++++++",
"++++++++++ooo....@@@@########################+++++++++++++++++++",
"++++++++++ooXXoo..@@@#####################++++++++++++++++++++++",
"++++++++++ooXXoooo@@@@#################+++++++++++++++++++++++++",
"++++++++++ooXXXXXX@@@@####XX########++++++++++++++++++++++++++++",
"++++++++++ooXXXXXXo@@@@###XX#####+++++++++++++++++++++++++++++++",
"++++++++ooXX++++++++@@@###XX##++++++++++++++++++++++++++++++++++",
"++++++++ooXX++++++++++@@#XX XX++++++++++++++++++++++++++++++++++",
"++++++++oo++++++++++++++ XX XX++++++++++++++++++++++++++++++++++",
"++++++++oo++++++++++++++oXXXXX++++++++++++++++++++++++++++++++++",
"++++++++++++++++++++++++++ooXX++++++++++++++++++++++++++++++++++",
"++++++++++++++++++++++++++ooXX++++++++++++++++++++++++++++++++++",
"++++++oo++++++++++++++++++++oooo++++++++++++++++++++++++++++++++",
"++++++oo++++++++++++++++++++oooo++++++++++++++++++++++++++++++++",
"++++++++++++++++++++++++++++++oo++++++++++++++++++++++++++++++++",
"++++++++++++++++++++++++++++++oo++++++++++++++++++++++++++++++++",
"++++oo++++++++++++++++++++++++++oo++++++++++++++++++++++++++++++",
"++++oo++++++++++++++++++++++++++oo++++++++++++++++++++++++++++++",
"++oooo++++++++++++++++++++++++++ooXX++++++++++++++++++++++++++++",
"++oooo++++++++++++++++++++++++++ooXX++++++++++++++++++++++++++++",
"ooXX++++++++++++++++++++++++++++++XXXXoo++++++++++++++++++++++oo",
"ooXX++++++++++++++++++++++++++++++XXXXoo++++++++++++++++++++++oo",
"XXoo++++++++++++++++++++++++++++++XXXXXXXXoo++++++++++++++++ooOO",
"XXoo++++++++++++++++++++++++++++++XXXXXXXXoo++++++++++++++++ooOO"
};
