/* XPM */
static char *d74097dc678c4c5c86e0ba1b05d038bdvdqFbsS6yXYr0aBm[] = {
/* columns rows colors chars-per-pixel */
"64 64 11 1 ",
"  c #0C0F2A",
". c #303843",
"X c #593E47",
"o c #7A5859",
"O c #B55945",
"+ c #A57855",
"@ c #D07753",
"# c #A6B04F",
"$ c #DE9F47",
"% c #EB9661",
"& c #F1F6F0",
/* pixels */
"OO%%%%%%%%%%%%%%%%%%%%%%%%%%%%%%%%OO@@%%%%%%%%%%@@@@OOOO@@OOOOOO",
"OO%%%%%%%%%%%%%%%%%%%%%%%%%%%%%%%%OO@@%%%%%%%%%%@@@@OOOO@@OOOOOO",
"@@%%%%%%%%%%%%%%%%%%%%%%%%%%%%%%%%@@%%%%%%%%%%%%%%%%%%@@@@@@@@OO",
"@@%%%%%%%%%%%%%%%%%%%%%%%%%%%%%%%%@@%%%%%%%%%%%%%%%%%%@@@@@@@@OO",
"@@%%%%%%%%%%%%%%%%%%%%%%%%%%%%%%%%@@%%%%%%%%%%%%%%%%%%%%@@%%%%@@",
"@@%%%%%%%%%%%%%%%%%%%%%%%%%%%%%%%%@@%%%%%%%%%%%%%%%%%%%%@@%%%%@@",
"@@%%%%%%%%%%%%%%%%%%%%%%%%%%%%%%%%%%%%%%%%%%%%%%%%%%%%%%%%%%%%%%",
"@@%%%%%%%%%%%%%%%%%%%%%%%%%%%%%%%%%%%%%%%%%%%%%%%%%%%%%%%%%%%%%%",
"OO%%%%%%%%%%%%%%%%%%%%%%%%%%%%%%@@%%%%%%%%%%%%%%%%%%%%%%%%%%%%%%",
"OO%%%%%%%%%%%%%%%%%%%%%%%%%%%%%%@@%%%%%%%%%%%%%%%%%%%%%%%%%%%%%%",
"OO@@%%%%%%%%%%%%%%%%%%%%%%%%%%%%@@%%%%%%%%%%%%%%%%%%%%%%%%@@%%%%",
"OO@@%%%%%%%%%%%%%%%%%%%%%%%%%%%%@@%%%%%%%%%%%%%%%%%%%%%%%%@@%%%%",
"@@OO%%%%%%%%%%%%%%%%%%%%%%%%%%@@OO%%%%%%%%%%%%%%%%%%%%%%%%@@OO@@",
"@@OO%%%%%%%%%%%%%%%%%%%%%%%%%%@@OO%%%%%%%%%%%%%%%%%%%%%%%%@@OO@@",
"%%@@@@%%%%%%%%%%%%%%%%%%%%%%@@OOOO@@%%%%%%%%%%%%%%%%%%%%OO@@%%%%",
"%%@@@@%%%%%%%%%%%%%%%%%%%%%%@@OOOO@@%%%%%%%%%%%%%%%%%%%%OO@@%%%%",
"%%%%@@OO%%%%%%%%%%%%%%@@%%%%%%%%OO@@%%%%%%%%%%%%%%%%%%%%@@%%%%%%",
"%%%%@@OO%%%%%%%%%%%%%%@@%%%%%%%%OO@@%%%%%%%%%%%%%%%%%%%%@@%%%%%%",
"%%%%%%%%OOOOOO@@@&&&%%%%%%%          @%%%%%%&&&%%%%%%%%%%%%%%%%%",
"%%%%%%%%OOOOOO@@@@%%&&&&%% XXXooooXXX %%&&&&%%%%%%%%%%%%%%%%%%%%",
"%%%%%%%%OO@@@@%%%%%%&&&&%% XXXooooXXX %%&&&&%%%%%%%%%%@@%%%%%%%%",
"%%%%%%%%OO@@@@%%%%%%%%%%&&&XooooooooX&&&%%%%%%%%%%%%%%@@%%%%%%%%",
"%%%%%%%%@@@@%%%%%%%%%%%%&&&XooooooooX&&&%%%%%%%%%%%%%%@@%%%%%%%%",
"%%%%%%%%@@@@%%%%%%%%%%%%  X+$$$$$$$$+X  %%%%%%%%%%%%%%@@%%%%%%%%",
"%%%%%%%%@@%%%%%%%%%%%%%%  X+$$$$$$$$+X  @@%%%%%%%%%%@@OO@@%%%%%%",
"%%%%%%%%@@%%%%%%%%%%%%%%  X+$$$$$$$$+X  @@%%%%%%%%%%@@OO@@%%%%%%",
"%%%%%%@@%%%%%%%%%%%%%%%%  &&$$$$$$$$&&  OOOOOO@@@@@@OOOOOOOO@@@@",
"%%%%%%@@%%%%%%%%%%%%%%%%  &&$$$$$$$$&&  OOOOOO@@@@@@OOOOOOOO@@@@",
"@@OOOO@@%%%%%%%%%%%%%%%&&&&&oooooooo&&&&&O@@%%%%%%%%%%%%%%%%%%%%",
"@@OOOO@@%%%%%%%%%%%&&&&&&&&XooooooooX&&&&&&&&%%%%%%%%%%%%%%%%%%%",
"%%%%@@OO%%%%%%%%%%%&&&&&&&&XooooooooX&&&&&&&&%%%%%%%%%%%%%%%%%%%",
"%%%%@@OO%%%%%%%%&&&&&&&&&&XX$$$$$$$$XX&&&&&&&&&&%%%%%%%%%%%%%%%%",
"%%%%%%@@%%%%%%%%&&&&&&&&&&XX$$$$$$$$XX&&&&&&&&&&%%%%%%%%%%%%%%%%",
"%%%%%%@@%%%%%%%%&&&&&&&&  X$$$$$$$$$$X  &&&&&&&&%%%%%%%%%%%%%%%%",
"%%%%%%%%@@%%%%%%&&&&&&& $$ ...$$$$... $$ &&&&&&&%%%%%%%%%%%%%%%%",
"%%%%%%%%@@%%%%%%&&&&&&& $$ ...$$$$... $$ &&&&&&&%%%%%%%%%%%%%%%%",
"%%%%%%%%%%%%%%%%&&&&&&& $$ ...$$$$... $$ &&&&&&&%%%%%%%%%%%%%%%%",
"%%%%%%%%%%%%%%%%&&&&&&& $$ ...$$$$... $$ &&&&&&&%%%%%%%%%%%%%%%%",
"%%%%%%%%%%@@%%%%&&&&%%@ $$ ...$$$$... $$ %%%&&&&%%%%%%%%%%%%%%%%",
"%%%%%%%%%%@@%%%%%%%%%%@   % &&$$$$&& %   %%%%%%%%%%%%%%%%%%%%%%%",
"%%%%%%%%%%@@@@%%%%%%%%%   % &&$$$$&& %   %%%%%%%%%%%%%%%%%%%%%%%",
"%%%%%%%%%%@@@@%%%%%%%%%%%%% &&    && %%%%%%%%%%%%%%%%%%%%%%%%%%%",
"%%%%%%%%%%@@OO@@@@@@@@%%%%% &&    && %%%%%%%%%%%%%%%%%%%%%%%%%%%",
"%%%%%%%%%%@@OO@@@@@@@@%%%%%   %%%%   %%%%%%%%%%%%%%%%%%%%%%%%%%%",
"%%%%%%%%%%@@OOOOOO@@@@%%%%%%@@%%%%%%%%%%%%%%%%%%%%%%%%%%%%%%%%%%",
"%%%%%%%%%%@@OOOOOO@@@@%%%%%%@@%%%%%%%%%%%%%%%%%%%%%%%%%%%%%%%%%%",
"%%%%%%%%@@OO%%%%%%%%%%@@OO@@OO%%%%%%%%%%%%%%%%%%%%%%%%%%%%%%%%%%",
"%%%%%%%%@@OO%%%%%%%%%%@@OO@@OO%%%%%%%%%%%%%%%%%%%%%%%%%%%%%%%%%%",
"%%%%%%%%@@%%%%%%%%%%%%%%@@OOOO%%%%%%%%%%%%%%%%%%%%%%%%%%%%%%%%%%",
"%%%%%%%%@@%%%%%%%%%%%%%%@@OOOO%%%%%%%%%%%%%%%%%%%%%%%%%%%%%%%%%%",
"%%%%%%%%%%%%%%%%%%%%%%%%%%@@OO%%%%%%%%%%%%%%%%%%%%%%%%%%%%%%%%%%",
"%%%%%%%%%%%%%%%%%%%%%%%%%%@@OO%%%%%%%%%%%%%%%%%%%%%%%%%%%%%%%%%%",
"%%%%%%@@%%%%%%%%%%%%%%%%%%%%@@@@%%%%%%%%%%%%%%%%%%%%%%%%%%%%%%%%",
"%%%%%%@@%%%%%%%%%%%%%%%%%%%%@@@@%%%%%%%%%%%%%%%%%%%%%%%%%%%%%%%%",
"%%%%%%%%%%%%%%%%%%%%%%%%%%%%%%@@%%%%%%%%%%%%%%%%%%%%%%%%%%%%%%%%",
"%%%%%%%%%%%%%%%%%%%%%%%%%%%%%%@@%%%%%%%%%%%%%%%%%%%%%%%%%%%%%%%%",
"%%%%@@%%%%%%%%%%%%%%%%%%%%%%%%%%@@%%%%%%%%%%%%%%%%%%%%%%%%%%%%%%",
"%%%%@@%%%%%%%%%%%%%%%%%%%%%%%%%%@@%%%%%%%%%%%%%%%%%%%%%%%%%%%%%%",
"%%@@@@%%%%%%%%%%%%%%%%%%%%%%%%%%@@OO%%%%%%%%%%%%%%%%%%%%%%%%%%%%",
"%%@@@@%%%%%%%%%%%%%%%%%%%%%%%%%%@@OO%%%%%%%%%%%%%%%%%%%%%%%%%%%%",
"@@OO%%%%%%%%%%%%%%%%%%%%%%%%%%%%%%OOOO@@%%%%%%%%%%%%%%%%%%%%%%@@",
"@@OO%%%%%%%%%%%%%%%%%%%%%%%%%%%%%%OOOO@@%%%%%%%%%%%%%%%%%%%%%%@@",
"OO@@%%%%%%%%%%%%%%%%%%%%%%%%%%%%%%OOOOOOOO@@%%%%%%%%%%%%%%%%@@##",
"OO@@%%%%%%%%%%%%%%%%%%%%%%%%%%%%%%OOOOOOOO@@%%%%%%%%%%%%%%%%@@##"
};
