/* XPM */
static char *_680f4ac4428427cc2a4a6bb76617ee9JJ37hO48YWyZmTpT[] = {
/* columns rows colors chars-per-pixel */
"64 64 11 1 ",
"  c #0C0F2A",
". c #303843",
"X c #593E47",
"o c #7A5859",
"O c #B55945",
"+ c #A57855",
"@ c #D07753",
"# c #A6B04F",
"$ c #DE9F47",
"% c #EB9661",
"& c #F1F6F0",
/* pixels */
"OO%%%%%%%%%%%%%%%%%%%%%%%%%%%%%%%%OO@@%%%%%%%%%%@@@@OOOO@@OOOOOO",
"OO%%%%%%%%%%%%%%%%%%%%%%%%%%%%%%%%OO@@%%%%%%%%%%@@@@OOOO@@OOOOOO",
"@@%%%%%%%%%%%%%%%%%%%%%%%%%%%%%%%%@@%%%%%%%%%%%%%%%%%%@@@@@@@@OO",
"@@%%%%%%%%%%%%%%%%%%%%%%%%%%%%%%%%@@%%%%%%%%%%%%%%%%%%@@@@@@@@OO",
"@@%%%%%%%%%%%%%%%%%%%%%%%%%%%%%%%%@@%%%%%%%%%%%%%%%%%%%%@@%%%%@@",
"@@%%%%%%%%%%%%%%%%%%%%%%%%%%%%%%%%@@%%%%%%%%%%%%%%%%%%%%@@%%%%@@",
"@@%%%%%%%%%%%%%%%%%%%%%%%%%%%%%%%%%%%%%%%%%%%%%%%%%%%%%%%%%%%%%%",
"@@%%%%%%%%%%%%%%%%%%%%%%%%%%%%%%%%%%%%%%%%%%%%%%%%%%%%%%%%%%%%%%",
"OO%%%%%%%%%%%%%%%%%%%%%%%%%%%%%%@@%%%%%%%%%%%%%%%%%%%%%%%%%%%%%%",
"OO%%%%%%%%%%%%%%%%%%%%%%%%%%%%%%@@%%%%%%%%%%%%%%%%%%%%%%%%%%%%%%",
"OO@@%%%%%%%%%%%%%%%%%%%%%%%%%%%%@@%%%%%%%%%%%%%%%%%%%%%%%%@@%%%%",
"OO@@%%%%%%%%%%%%%%%%%%%%%%%%%%%%@@%%%%%%%%%%%%%%%%%%%%%%%%@@%%%%",
"@@OO%%%%%%%%%%%%%%%%%%%%%%%%%%@@OO%%%%%%%%%%%%%%%%%%%%%%%%@@OO@@",
"@@OO%%%%%%%%%%%%%%%%%%%%%%%%%%@@OO%%%%%%%%%%%%%%%%%%%%%%%%@@OO@@",
"%%@@@@%%%%%%%%%%%%%%%%%%%%%%@@OOOO@@%%%%%%%%%%%%%%%%%%%%OO@@%%%%",
"%%@@@@%%%%%%%%%%%%&&&&&&%%%%@@OOOO@@%%%%%%&&&&&&%%%%%%%%OO@@%%%%",
"%%%%@@OO%%%%%%%%%%&&&&&&%%%%%%%%OO@@%%%%%%&&&&&&%%%%%%%%@@%%%%%%",
"%%%%@@OO%%%%%%%%%%&&&&&&&%%%%        %%%%&&&&&&&%%%%%%%%@@%%%%%%",
"%%%%%%%%OOOOOO@@@@&&&&&&&%%%%        @%%%&&&&&&&%%%%%%%%%%%%%%%%",
"%%%%%%%%OOOOOO@@@@&&&&&&&&&% XXXXXXXX %&&&&&&&&&%%%%%%%%%%%%%%%%",
"%%%%%%%%OO@@@@%%%%%%&&&&&&& XooooooooX &&&&&&&%%%%%%%%@@%%%%%%%%",
"%%%%%%%%OO@@@@%%%%%%&&&&&&& XooooooooX &&&&&&&%%%%%%%%@@%%%%%%%%",
"%%%%%%%%@@@@%%%%%%%%%%%%&&&&+$$$$$$$$+&&&&%%%%%%%%%%%%@@%%%%%%%%",
"%%%%%%%%@@@@%%%%%%%%%%%%&&&&+$$$$$$$$+&&&&%%%%%%%%%%%%@@%%%%%%%%",
"%%%%%%%%@@%%%%%%%%%%&%%%%&&&&$$$$$$$$&&&&@%%%&%%%%%%@@OO@@%%%%%%",
"%%%%%%%%@@%%%%%%%%%%&%%%%&&&&$$$$$$$$&&&&@%%%&%%%%%%@@OO@@%%%%%%",
"%%%%%%@@%%%%%%%%%%%%&%%%%&&&&$$$$$$$$&&&&OOOO&@@@@@@OOOOOOOO@@@@",
"%%%%%%@@%%%%%%%%%%%%&%%% ++&&oooooooo&&++ OOO&@@@@@@OOOOOOOO@@@@",
"@@OOOO@@%%%%%%%%%%%%&%%% ++&&oooooooo&&++ @@%&%%%%%%%%%%%%%%%%%%",
"@@OOOO@@%%%%%%%%%%%%&&&& ++XXooooooooXX++ &&&&%%%%%%%%%%%%%%%%%%",
"%%%%@@OO%%%%%%%%%%%%&&&&   XX$$$$$$$$XX   &&&&%%%%%%%%%%%%%%%%%%",
"%%%%@@OO%%%%%%%%%%%%&&&&   XX$$$$$$$$XX   &&&&%%%%%%%%%%%%%%%%%%",
"%%%%%%@@%%%%%%%%%%%%%&&&%  X$$$$$$$$$$X  %&&&%%%%%%%%%%%%%%%%%%%",
"%%%%%%@@%%%%%%%%%%%%%&&&%  X$$$$$$$$$$X  %&&&%%%%%%%%%%%%%%%%%%%",
"%%%%%%%%@@%%%%%%%%%%%%%% $$ ...$$$$... $$ %%%%%%%%%%%%%%%%%%%%%%",
"%%%%%%%%@@%%%%%%%%%%%%%% $$ ...$$$$... $$ %%%%%%%%%%%%%%%%%%%%%%",
"%%%%%%%%%%%%%%%%%%%%%%%% $$ ...$$$$... $$ %%%%%%%%%%%%%%%%%%%%%%",
"%%%%%%%%%%%%%%%%%%%%%%%% $$ ...$$$$... $$ %%%%%%%%%%%%%%%%%%%%%%",
"%%%%%%%%%%@@%%%%%%%%%%@@ $$ ...$$$$... $$ %%%%%%%%%%%%%%%%%%%%%%",
"%%%%%%%%%%@@%%%%%%%%%%@@   % &&$$$$&& %   %%%%%%%%%%%%%%%%%%%%%%",
"%%%%%%%%%%@@@@%%%%%%%%%%%%%% &&    && %%%%%%%%%%%%%%%%%%%%%%%%%%",
"%%%%%%%%%%@@@@%%%%%%%%%%%%%% &&    && %%%%%%%%%%%%%%%%%%%%%%%%%%",
"%%%%%%%%%%@@OO@@@@@@@@%%%%%%   %%%%   %%%%%%%%%%%%%%%%%%%%%%%%%%",
"%%%%%%%%%%@@OO@@@@@@@@%%%%%%   %%%%   %%%%%%%%%%%%%%%%%%%%%%%%%%",
"%%%%%%%%%%@@OOOOOO@@@@%%%%%%@@%%%%%%%%%%%%%%%%%%%%%%%%%%%%%%%%%%",
"%%%%%%%%%%@@OOOOOO@@@@%%%%%%@@%%%%%%%%%%%%%%%%%%%%%%%%%%%%%%%%%%",
"%%%%%%%%@@OO%%%%%%%%%%@@OO@@OO%%%%%%%%%%%%%%%%%%%%%%%%%%%%%%%%%%",
"%%%%%%%%@@OO%%%%%%%%%%@@OO@@OO%%%%%%%%%%%%%%%%%%%%%%%%%%%%%%%%%%",
"%%%%%%%%@@%%%%%%%%%%%%%%@@OOOO%%%%%%%%%%%%%%%%%%%%%%%%%%%%%%%%%%",
"%%%%%%%%@@%%%%%%%%%%%%%%@@OOOO%%%%%%%%%%%%%%%%%%%%%%%%%%%%%%%%%%",
"%%%%%%%%%%%%%%%%%%%%%%%%%%@@OO%%%%%%%%%%%%%%%%%%%%%%%%%%%%%%%%%%",
"%%%%%%%%%%%%%%%%%%%%%%%%%%@@OO%%%%%%%%%%%%%%%%%%%%%%%%%%%%%%%%%%",
"%%%%%%@@%%%%%%%%%%%%%%%%%%%%@@@@%%%%%%%%%%%%%%%%%%%%%%%%%%%%%%%%",
"%%%%%%@@%%%%%%%%%%%%%%%%%%%%@@@@%%%%%%%%%%%%%%%%%%%%%%%%%%%%%%%%",
"%%%%%%%%%%%%%%%%%%%%%%%%%%%%%%@@%%%%%%%%%%%%%%%%%%%%%%%%%%%%%%%%",
"%%%%%%%%%%%%%%%%%%%%%%%%%%%%%%@@%%%%%%%%%%%%%%%%%%%%%%%%%%%%%%%%",
"%%%%@@%%%%%%%%%%%%%%%%%%%%%%%%%%@@%%%%%%%%%%%%%%%%%%%%%%%%%%%%%%",
"%%%%@@%%%%%%%%%%%%%%%%%%%%%%%%%%@@%%%%%%%%%%%%%%%%%%%%%%%%%%%%%%",
"%%@@@@%%%%%%%%%%%%%%%%%%%%%%%%%%@@OO%%%%%%%%%%%%%%%%%%%%%%%%%%%%",
"%%@@@@%%%%%%%%%%%%%%%%%%%%%%%%%%@@OO%%%%%%%%%%%%%%%%%%%%%%%%%%%%",
"@@OO%%%%%%%%%%%%%%%%%%%%%%%%%%%%%%OOOO@@%%%%%%%%%%%%%%%%%%%%%%@@",
"@@OO%%%%%%%%%%%%%%%%%%%%%%%%%%%%%%OOOO@@%%%%%%%%%%%%%%%%%%%%%%@@",
"OO@@%%%%%%%%%%%%%%%%%%%%%%%%%%%%%%OOOOOOOO@@%%%%%%%%%%%%%%%%@@##",
"OO@@%%%%%%%%%%%%%%%%%%%%%%%%%%%%%%OOOOOOOO@@%%%%%%%%%%%%%%%%@@##"
};
