/* XPM */
static char *_119b78b6fca4e60f06dd95c277409c35cD89yxrw5oqZCUM[] = {
/* columns rows colors chars-per-pixel */
"64 64 11 1 ",
"  c #0C0F2A",
". c #303843",
"X c #593E47",
"o c #7A5859",
"O c #B55945",
"+ c #A57855",
"@ c #D07753",
"# c #A6B04F",
"$ c #DE9F47",
"% c #EB9661",
"& c #F1F6F0",
/* pixels */
"OO%%%%%%%%%%%%%%%%%%%%%%%%%%%%%%%%OO@@%%%%%%%%%%@@@@OOOO@@OOOOOO",
"OO%%%%%%%%%%%%%%%%%%%%%%%%%%%%%%%%OO@@%%%%%%%%%%@@@@OOOO@@OOOOOO",
"@@%%%%%%%%%%%%%%%%%%%%%%%%%%%%%%%%@@%%%%%%%%%%%%%%%%%%@@@@@@@@OO",
"@@%%%%%%%%%%%%%%%%%%%%%%%%%%%%%%%%@@%%%%%%%%%%%%%%%%%%@@@@@@@@OO",
"@@%%%%%%%%%%%%%%%%%%%%%%%%%%%%%%%%@@%%%%%%%%%%%%%%%%%%%%@@%%%%@@",
"@@%%%%%%%%%%%%%%%%%%%%%%%%%%%%%%%%@@%%%%%%%%%%%%%%%%%%%%@@%%%%@@",
"@@%%%%%%%%%%%%%%%%%%%%%%%%%%%%%%%%%%%%%%%%%%%%%%%%%%%%%%%%%%%%%%",
"@@%%%%%%%%%%%%%%%%%%%%%%%%%%%%%%%%%%%%%%%%%%%%%%%%%%%%%%%%%%%%%%",
"OO%%%%%%%%%%%%%%%%%%%%%%%%%%%%%%@@%%%%%%%%%%%%%%%%%%%%%%%%%%%%%%",
"OO%%%%%%%%%%%%%%%%%%%%%%%%%%%%%%@@%%%%%%%%%%%%%%%%%%%%%%%%%%%%%%",
"OO@@%%%%%%%%%%%%%%%%%%%%%%%%%%%%@@%%%%%%%%%%%%%%%%%%%%%%%%@@%%%%",
"OO@@%%%%%%%%%%%%%%%%%%%%%%%%%%%%@@%%%%%%%%%%%%%%%%%%%%%%%%@@%%%%",
"@@OO%%%%%%%%%%%%%%%%%%%%%%%%%%@@OO%%%%%%%%%%%%%%%%%%%%%%%%@@OO@@",
"@@OO%%%%%%%%%%%%%%%%%%%%%%%%%%@@OO%%%%%%%%%%%%%%%%%%%%%%%%@@OO@@",
"%%@@@@%%%%%%%%%%%%%%%%%%%%%%@@OOOO@@%%%%%%%%%%%%%%%%%%%%OO@@%%%%",
"%%@@@@%%%%%%%%%%%%%%%%%%%%%%@@OOOO@@%%%%%%%%%%%%%%%%%%%%OO@@%%%%",
"%%%%@@OO%%%%%%%%%%%%%%@@%%%%%%%%OO@@%%%%%%%%%%%%%%%%%%%%@@%%%%%%",
"%%%%@@OO%%%%%%%%%%%%%%@@%%%          %%%%%%%%%%%%%%%%%%%@@%%%%%%",
"%%%%%%%%OOOOOO@@@@%%%%%%%%%          @%%%%%%%%%%%%%%%%%%%%%%%%%%",
"%%%%%%%%OOOOOO&&&&&%%%%%%% XXXooooXXX %%%%%%%&&&&&%%%%%%%%%%%%%%",
"%%%%%%%%OO@@@@&&&&&&&&&&  XXooooooooXX  &&&&&&&&&&%%%%@@%%%%%%%%",
"%%%%%%%%OO@@@@&&&&&&&&&&  XXooooooooXX  &&&&&&&&&&%%%%@@%%%%%%%%",
"%%%%%%%%@@@@%%&&&&&&&&&&&&&&$$$$$$$$&&&&&&&&&&&&&&%%%%@@%%%%%%%%",
"%%%%%%%%@@@@%%&&&&&&&&&&&&&&$$$$$$$$&&&&&&&&&&&&&&%%%%@@%%%%%%%%",
"%%%%%%%%@@%%%%&&&&&&&&&&&&&&$$$$$$$$&&&&&&&&&&&&&&%%@@OO@@%%%%%%",
"%%%%%%%%@@%%%%&&&&&&&&&&&&&&$$$$$$$$&&&&&&&&&&&&&&%%@@OO@@%%%%%%",
"%%%%%%@@%%%%%%&&&&&&&&&&&&&&$$$$$$$$&&&&&&&&&&&&&&@@OOOOOOOO@@@@",
"%%%%%%@@%%%%%%%%&&&&&&&&&&&&oooooooo&&&&&&&&&&&&@@@@OOOOOOOO@@@@",
"@@OOOO@@%%%%%%%%&&&&&&&&&&&&oooooooo&&&&&&&&&&&&%%%%%%%%%%%%%%%%",
"@@OOOO@@%%%%%%%%&&&&&&& ++XXooooooooXX++ &&&&&&&%%%%%%%%%%%%%%%%",
"%%%%@@OO%%%%%%%%%%%%%%%   XX$$$$$$$$XX   %%%%%%%%%%%%%%%%%%%%%%%",
"%%%%@@OO%%%%%%%%%%%%%%%   XX$$$$$$$$XX   %%%%%%%%%%%%%%%%%%%%%%%",
"%%%%%%@@%%%%%%%%%%%%%%%&&&X$$$$$$$$$$X&&&%%%%%%%%%%%%%%%%%%%%%%%",
"%%%%%%@@%%%%%%%%%%%%%%%&&&X$$$$$$$$$$X&&&%%%%%%%%%%%%%%%%%%%%%%%",
"%%%%%%%%@@%%%%%%%%%%&&&&$$ ...$$$$... $$&&&&%%%%%%%%%%%%%%%%%%%%",
"%%%%%%%%@@%%%%%%%%%%%%% $$ ...$$$$... $$ %%%%%%%%%%%%%%%%%%%%%%%",
"%%%%%%%%%%%%%%%%%%%%%%% $$ ...$$$$... $$ %%%%%%%%%%%%%%%%%%%%%%%",
"%%%%%%%%%%%%%%%%%%%%%%% $$ ...$$$$... $$ %%%%%%%%%%%%%%%%%%%%%%%",
"%%%%%%%%%%@@%%%%%%%%%%@ $$ ...$$$$... $$ %%%%%%%%%%%%%%%%%%%%%%%",
"%%%%%%%%%%@@%%%%%%%%%%@   % &&$$$$&& %   %%%%%%%%%%%%%%%%%%%%%%%",
"%%%%%%%%%%@@@@%%%%%%%%%%%%% &&    && %%%%%%%%%%%%%%%%%%%%%%%%%%%",
"%%%%%%%%%%@@@@%%%%%%%%%%%%% &&    && %%%%%%%%%%%%%%%%%%%%%%%%%%%",
"%%%%%%%%%%@@OO@@@@@@@@%%%%%   %%%%   %%%%%%%%%%%%%%%%%%%%%%%%%%%",
"%%%%%%%%%%@@OO@@@@@@@@%%%%%   %%%%   %%%%%%%%%%%%%%%%%%%%%%%%%%%",
"%%%%%%%%%%@@OOOOOO@@@@%%%%%%@@%%%%%%%%%%%%%%%%%%%%%%%%%%%%%%%%%%",
"%%%%%%%%%%@@OOOOOO@@@@%%%%%%@@%%%%%%%%%%%%%%%%%%%%%%%%%%%%%%%%%%",
"%%%%%%%%@@OO%%%%%%%%%%@@OO@@OO%%%%%%%%%%%%%%%%%%%%%%%%%%%%%%%%%%",
"%%%%%%%%@@OO%%%%%%%%%%@@OO@@OO%%%%%%%%%%%%%%%%%%%%%%%%%%%%%%%%%%",
"%%%%%%%%@@%%%%%%%%%%%%%%@@OOOO%%%%%%%%%%%%%%%%%%%%%%%%%%%%%%%%%%",
"%%%%%%%%@@%%%%%%%%%%%%%%@@OOOO%%%%%%%%%%%%%%%%%%%%%%%%%%%%%%%%%%",
"%%%%%%%%%%%%%%%%%%%%%%%%%%@@OO%%%%%%%%%%%%%%%%%%%%%%%%%%%%%%%%%%",
"%%%%%%%%%%%%%%%%%%%%%%%%%%@@OO%%%%%%%%%%%%%%%%%%%%%%%%%%%%%%%%%%",
"%%%%%%@@%%%%%%%%%%%%%%%%%%%%@@@@%%%%%%%%%%%%%%%%%%%%%%%%%%%%%%%%",
"%%%%%%@@%%%%%%%%%%%%%%%%%%%%@@@@%%%%%%%%%%%%%%%%%%%%%%%%%%%%%%%%",
"%%%%%%%%%%%%%%%%%%%%%%%%%%%%%%@@%%%%%%%%%%%%%%%%%%%%%%%%%%%%%%%%",
"%%%%%%%%%%%%%%%%%%%%%%%%%%%%%%@@%%%%%%%%%%%%%%%%%%%%%%%%%%%%%%%%",
"%%%%@@%%%%%%%%%%%%%%%%%%%%%%%%%%@@%%%%%%%%%%%%%%%%%%%%%%%%%%%%%%",
"%%%%@@%%%%%%%%%%%%%%%%%%%%%%%%%%@@%%%%%%%%%%%%%%%%%%%%%%%%%%%%%%",
"%%@@@@%%%%%%%%%%%%%%%%%%%%%%%%%%@@OO%%%%%%%%%%%%%%%%%%%%%%%%%%%%",
"%%@@@@%%%%%%%%%%%%%%%%%%%%%%%%%%@@OO%%%%%%%%%%%%%%%%%%%%%%%%%%%%",
"@@OO%%%%%%%%%%%%%%%%%%%%%%%%%%%%%%OOOO@@%%%%%%%%%%%%%%%%%%%%%%@@",
"@@OO%%%%%%%%%%%%%%%%%%%%%%%%%%%%%%OOOO@@%%%%%%%%%%%%%%%%%%%%%%@@",
"OO@@%%%%%%%%%%%%%%%%%%%%%%%%%%%%%%OOOOOOOO@@%%%%%%%%%%%%%%%%@@##",
"OO@@%%%%%%%%%%%%%%%%%%%%%%%%%%%%%%OOOOOOOO@@%%%%%%%%%%%%%%%%@@##"
};
