/* XPM */
static char *_21daae8e5c749c9e27b2059c3e119eaur1uVrIt1l8K9UvS[] = {
/* columns rows colors chars-per-pixel */
"64 64 11 1 ",
"  c #0C0F2A",
". c #303843",
"X c #593E47",
"o c #7A5859",
"O c #B55945",
"+ c #A57855",
"@ c #D07753",
"# c #A6B04F",
"$ c #DE9F47",
"% c #EB9661",
"& c #F1F6F0",
/* pixels */
"OO%%%%%%%%%%%%%%%%%%%%%%%%%%%%%%%%OO@@%%%%%%%%%%@@@@OOOO@@OOOOOO",
"OO%%%%%%%%%%%%%%%%%%%%%%%%%%%%%%%%OO@@%%%%%%%%%%@@@@OOOO@@OOOOOO",
"@@%%%%%%%%%%%%%%%%%%%%%%%%%%%%%%%%@@%%%%%%%%%%%%%%%%%%@@@@@@@@OO",
"@@%%%%%%%%%%%%%%%%%%%%%%%%%%%%%%%%@@%%%%%%%%%%%%%%%%%%@@@@@@@@OO",
"@@%%%%%%%%%%%%%%%%%%%%%%%%%%%%%%%%@@%%%%%%%%%%%%%%%%%%%%@@%%%%@@",
"@@%%%%%%%%%%%%%%%%%%%%%%%%%%%%%%%%@@%%%%%%%%%%%%%%%%%%%%@@%%%%@@",
"@@%%%%%%%%%%%%%%%%%%%%%%%%%%%%%%%%%%%%%%%%%%%%%%%%%%%%%%%%%%%%%%",
"@@%%%%%%%%%%%%%%%%%%%%%%%%%%%%%%%%%%%%%%%%%%%%%%%%%%%%%%%%%%%%%%",
"OO%%%%%%%%%%%%%%%%%%%%%%%%%%%%%%@@%%%%%%%%%%%%%%%%%%%%%%%%%%%%%%",
"OO%%%%%%%%%%%%%%%%%%%%%%%%%%%%%%@@%%%%%%%%%%%%%%%%%%%%%%%%%%%%%%",
"OO@@%%%%%%%%%%%%%%%%%%%&&&&%%%%%@@%&&&&%%%%%%%%%%%%%%%%%%%@@%%%%",
"OO@@%%%%%%%%%%%%%%%%%%%&&&&%%%%%@@%&&&&%%%%%%%%%%%%%%%%%%%@@%%%%",
"@@OO%%%%%%%%%%%%%%%%%%%&&&&%%%@@OO%&&&&%%%%%%%%%%%%%%%%%%%@@OO@@",
"@@OO%%%%%%%%%%%%%%%%%%%&&&&%%%@@OO%&&&&%%%%%%%%%%%%%%%%%%%@@OO@@",
"%%@@@@%%%%%%%%%%%%%&&&&&&&&%@@OOOO@&&&&&&&&%%%%%%%%%%%%%OO@@%%%%",
"%%@@@@%%%%%%%%%%%%%&&&&&&&&%@@OOOO@&&&&&&&&%%%%%%%%%%%%%OO@@%%%%",
"%%%%@@OO%%%%%%%%%%%&&&&&&&&%%%%%OO@&&&&&&&&%%%%%%%%%%%%%@@%%%%%%",
"%%%%@@OO%%%%%%%%%%%%%%&&&&&        &&&&&%%%%%%%%%%%%%%%%@@%%%%%%",
"%%%%%%%%OOOOOO@@@@%%%%&&&&&        &&&&&%%%%%%%%%%%%%%%%%%%%%%%%",
"%%%%%%%%OOOOOO@@@@%%%%&&&&&XXooooXX&&&&&%%%%%%%%%%%%%%%%%%%%%%%%",
"%%%%%%%%OO@@@@%%%%&%%%%&&&&oooooooo&&&&%%%%&%%%%%%%%%%@@%%%%%%%%",
"%%%%%%%%OO@@@@%%%%&%%%%&&&&oooooooo&&&&%%%%&%%%%%%%%%%@@%%%%%%%%",
"%%%%%%%%@@@@%%%%&&&%%%%&&&&$$$$$$$$&&&&@%%%&&&%%%%%%%%@@%%%%%%%%",
"%%%%%%%%@@@@%%%%&&&%%%%&&&&$$$$$$$$&&&&@%%%&&&%%%%%%%%@@%%%%%%%%",
"%%%%%%%%@@%%%%%%&&%%%%%  &&$$$$$$$$&&  O@@%%&&%%%%%%@@OO@@%%%%%%",
"%%%%%%%%@@%%%%%%&&%%%%%  &&$$$$$$$$&&  O@@%%&&%%%%%%@@OO@@%%%%%%",
"%%%%%%@@%%%%%%%%&&%%%%%  &&$$$$$$$$&&  OOOOO&&@@@@@@OOOOOOOO@@@@",
"%%%%%%@@%%%%%%%%&&%%%% ++&&oooooooo&&++ OOOO&&@@@@@@OOOOOOOO@@@@",
"@@OOOO@@%%%%%%%%&&%%%% ++&&oooooooo&&++ OO@@&&%%%%%%%%%%%%%%%%%%",
"@@OOOO@@%%%%%%%%%%%%%% ++XXooooooooXX++ OO@@%%%%%%%%%%%%%%%%%%%%",
"%%%%@@OO%%%%%%%%%%%%%%   XX$$$$$$$$XX   %%%%%%%%%%%%%%%%%%%%%%%%",
"%%%%@@OO%%%%%%%%%%%%%%   XX$$$$$$$$XX   %%%%%%%%%%%%%%%%%%%%%%%%",
"%%%%%%@@%%%%%%%%%%%%%%%  X$$$$$$$$$$X  %%%%%%%%%%%%%%%%%%%%%%%%%",
"%%%%%%@@%%%%%%%%%%%%%%%  X$$$$$$$$$$X  %%%%%%%%%%%%%%%%%%%%%%%%%",
"%%%%%%%%@@%%%%%%%%%%%% $$ ...$$$$... $$ %%%%%%%%%%%%%%%%%%%%%%%%",
"%%%%%%%%@@%%%%%%%%%%%% $$ ...$$$$... $$ %%%%%%%%%%%%%%%%%%%%%%%%",
"%%%%%%%%%%%%%%%%%%%%%% $$ ...$$$$... $$ %%%%%%%%%%%%%%%%%%%%%%%%",
"%%%%%%%%%%%%%%%%%%%%%% $$ ...$$$$... $$ %%%%%%%%%%%%%%%%%%%%%%%%",
"%%%%%%%%%%@@%%%%%%%%%% $$ ...$$$$... $$ %%%%%%%%%%%%%%%%%%%%%%%%",
"%%%%%%%%%%@@%%%%%%%%%%   % &&$$$$&& %   %%%%%%%%%%%%%%%%%%%%%%%%",
"%%%%%%%%%%@@@@%%%%%%%%%%%% &&    && %%%%%%%%%%%%%%%%%%%%%%%%%%%%",
"%%%%%%%%%%@@@@%%%%%%%%%%%% &&    && %%%%%%%%%%%%%%%%%%%%%%%%%%%%",
"%%%%%%%%%%@@OO@@@@@@@@%%%%   %%%%   %%%%%%%%%%%%%%%%%%%%%%%%%%%%",
"%%%%%%%%%%@@OO@@@@@@@@%%%%   %%%%   %%%%%%%%%%%%%%%%%%%%%%%%%%%%",
"%%%%%%%%%%@@OOOOOO@@@@%%%%%%@@%%%%%%%%%%%%%%%%%%%%%%%%%%%%%%%%%%",
"%%%%%%%%%%@@OOOOOO@@@@%%%%%%@@%%%%%%%%%%%%%%%%%%%%%%%%%%%%%%%%%%",
"%%%%%%%%@@OO%%%%%%%%%%@@OO@@OO%%%%%%%%%%%%%%%%%%%%%%%%%%%%%%%%%%",
"%%%%%%%%@@OO%%%%%%%%%%@@OO@@OO%%%%%%%%%%%%%%%%%%%%%%%%%%%%%%%%%%",
"%%%%%%%%@@%%%%%%%%%%%%%%@@OOOO%%%%%%%%%%%%%%%%%%%%%%%%%%%%%%%%%%",
"%%%%%%%%@@%%%%%%%%%%%%%%@@OOOO%%%%%%%%%%%%%%%%%%%%%%%%%%%%%%%%%%",
"%%%%%%%%%%%%%%%%%%%%%%%%%%@@OO%%%%%%%%%%%%%%%%%%%%%%%%%%%%%%%%%%",
"%%%%%%%%%%%%%%%%%%%%%%%%%%@@OO%%%%%%%%%%%%%%%%%%%%%%%%%%%%%%%%%%",
"%%%%%%@@%%%%%%%%%%%%%%%%%%%%@@@@%%%%%%%%%%%%%%%%%%%%%%%%%%%%%%%%",
"%%%%%%@@%%%%%%%%%%%%%%%%%%%%@@@@%%%%%%%%%%%%%%%%%%%%%%%%%%%%%%%%",
"%%%%%%%%%%%%%%%%%%%%%%%%%%%%%%@@%%%%%%%%%%%%%%%%%%%%%%%%%%%%%%%%",
"%%%%%%%%%%%%%%%%%%%%%%%%%%%%%%@@%%%%%%%%%%%%%%%%%%%%%%%%%%%%%%%%",
"%%%%@@%%%%%%%%%%%%%%%%%%%%%%%%%%@@%%%%%%%%%%%%%%%%%%%%%%%%%%%%%%",
"%%%%@@%%%%%%%%%%%%%%%%%%%%%%%%%%@@%%%%%%%%%%%%%%%%%%%%%%%%%%%%%%",
"%%@@@@%%%%%%%%%%%%%%%%%%%%%%%%%%@@OO%%%%%%%%%%%%%%%%%%%%%%%%%%%%",
"%%@@@@%%%%%%%%%%%%%%%%%%%%%%%%%%@@OO%%%%%%%%%%%%%%%%%%%%%%%%%%%%",
"@@OO%%%%%%%%%%%%%%%%%%%%%%%%%%%%%%OOOO@@%%%%%%%%%%%%%%%%%%%%%%@@",
"@@OO%%%%%%%%%%%%%%%%%%%%%%%%%%%%%%OOOO@@%%%%%%%%%%%%%%%%%%%%%%@@",
"OO@@%%%%%%%%%%%%%%%%%%%%%%%%%%%%%%OOOOOOOO@@%%%%%%%%%%%%%%%%@@##",
"OO@@%%%%%%%%%%%%%%%%%%%%%%%%%%%%%%OOOOOOOO@@%%%%%%%%%%%%%%%%@@##"
};
