/* XPM */
static char *_f6494cc83c9467bada08a034ae08ff5RDOCDHCV26F2Mp8u[] = {
/* columns rows colors chars-per-pixel */
"64 64 10 1 ",
"  c #0C0F2A",
". c #303843",
"X c #593E47",
"o c #7A5859",
"O c #B55945",
"+ c #D07753",
"@ c #A6B04F",
"# c #DE9F47",
"$ c #EB9661",
"% c #F1F6F0",
/* pixels */
"OO$$$$$$$$$$$$$$$$$$$$$$$$$$$$$$$$OO++$$$$$$$$$$++++OOOO++OOOOOO",
"OO$$$$$$$$$$$$$$$$$$$$$$$$$$$$$$$$OO++$$$$$$$$$$++++OOOO++OOOOOO",
"++$$$$$$$$$$$$$$$$$$$$$$$$$$$$$$$$++$$$$$$$$$$$$$$$$$$++++++++OO",
"++$$$$$$$$$$$$$$$$$$$$$$$$$$$$$$$$++$$$$$$$$$$$$$$$$$$++++++++OO",
"++$$$$$$$$$$$$$$$$$$$$$$$$$$$$$$$$++$$$$$$$$$$$$$$$$$$$$++$$$$++",
"++$$$$$$$$$$$$$$$$$$$$$$$$$$$$$$$$++$$$$$$$$$$$$$$$$$$$$++$$$$++",
"++$$$$$$$$$$$$$$$$$$$$$$$$$$$$$$$$$$$$$$$$$$$$$$$$$$$$$$$$$$$$$$",
"++$$$$$$$$$$$$$$$$$$$$$$$$$$$$$$$$$$$$$$$$$$$$$$$$$$$$$$$$$$$$$$",
"OO$$$$$$$$$$$$$$$$$$$$$$$$$$$$$$++$$$$$$$$$$$$$$$$$$$$$$$$$$$$$$",
"OO$$$$$$$$$$$$$$$$$$$$$$$$$$$$$$++$$$$$$$$$$$$$$$$$$$$$$$$$$$$$$",
"OO++$$$$$$$$$$$$$$$$$$$$$$$$$$$$++$$$$$$$$$$$$$$$$$$$$$$$$++$$$$",
"OO++$$$$$$$$$$$$$$$$$$$$$$$$$$$$++$$$$$$$$$$$$$$$$$$$$$$$$++$$$$",
"++OO$$$$$$$$$$$$$$$$$$$$$$$$$$++OO$$$$$$$$$$$$$$$$$$$$$$$$++OO++",
"++OO$$$$$$$$$$$$$$$$$$$$$$$$$$++OO$$$$$$$$$$$$$$$$$$$$$$$$++OO++",
"$$++++$$$$$$$$$$$$$$$$$$$$$$++OOOO++$$$$$$$$$$$$$$$$$$$$OO++$$$$",
"$$++++$$$$$$$$$$$$$$$$$$$$$$++OOOO++$$$$$$$$$$$$$$$$$$$$OO++$$$$",
"$$$$++OO$$$$$$$$$$$$$$++$$$$$$$$OO++$$$$$$$$$$$$$$$$$$$$++$$$$$$",
"$$$$++OO$$$$$$$$$$$$$$++$$$$$        $$$$$$$$$$$$$$$$$$$++$$$$$$",
"$$$$$$$$OOOOOO++++$$$$$$$$$$$        +$$$$$$$$$$$$$$$$$$$$$$$$$$",
"$$$$$$$$OOOOOO++++%%%$$$$$$$ XXXXXXXX $$$$$$$%%%$$$$$$$$$$$$$$$$",
"$$$$$$$$OO++++$$$$$$$%%%%$$ XooooooooX $$%%%%$$$$$$$$$++$$$$$$$$",
"$$$$$$$$OO++++$$$$$$$%%%%$$ XooooooooX $$%%%%$$$$$$$$$++$$$$$$$$",
"$$$$$$$$++++$$$$$$$$$$$$$%%%oooooooooo%%%$$$$$$$$$$$$$++$$$$$$$$",
"$$$$$$$$++++$$$$$$$$$$$$$%%%oooooooooo%%%$$$$$$$$$$$$$++$$$$$$$$",
"$$$$$$$$++$$$$$$$$$$$$$$$  X##########X  +$$$$$$$$$$++OO++$$$$$$",
"$$$$$$$$++$$$$$$$$$$$$$$$  X##########X  +$$$$$$$$$$++OO++$$$$$$",
"$$$$$$++$$$$$$$$$$$$$$$$$  X##########X  OOOOO++++++OOOOOOOO++++",
"$$$$$$++$$$$$$$$$$$$$$$$$  %%########%%  OOOOO++++++OOOOOOOO++++",
"++OOOO++$$$$$$$$$$$$$$$$$  %%########%%  O++$$$$$$$$$$$$$$$$$$$$",
"++OOOO++$$$$$$$$$$$$$$$$%%%%%oooooooo%%%%%++$$$$$$$$$$$$$$$$$$$$",
"$$$$++OO$$$$$$$$$$$$%%%%%%%%XooooooooX%%%%%%%%$$$$$$$$$$$$$$$$$$",
"$$$$++OO$$$$$$$$$$$$%%%%%%%%XooooooooX%%%%%%%%$$$$$$$$$$$$$$$$$$",
"$$$$$$++$$$$$$$$$%%%%%%%%%%XX########XX%%%%%%%%%%$$$$$$$$$$$$$$$",
"$$$$$$++$$$$$$$$$%%%%%%%%%%XX########XX%%%%%%%%%%$$$$$$$$$$$$$$$",
"$$$$$$$$++$$$$$$$%%%%%%%%  X##########X  %%%%%%%%$$$$$$$$$$$$$$$",
"$$$$$$$$++$$$$$$$%%%%%%% ## ...####... ## %%%%%%%$$$$$$$$$$$$$$$",
"$$$$$$$$$$$$$$$$$%%%%%%% ## ...####... ## %%%%%%%$$$$$$$$$$$$$$$",
"$$$$$$$$$$$$$$$$$%%%%%%% ## ...####... ## %%%%%%%$$$$$$$$$$$$$$$",
"$$$$$$$$$$++$$$$$%%%%%%% ## ...####... ## %%%%%%%$$$$$$$$$$$$$$$",
"$$$$$$$$$$++$$$$$%%%%$++ ## ...####... ## $$$%%%%$$$$$$$$$$$$$$$",
"$$$$$$$$$$++++$$$$$$$$$$   $ %%####%% $   $$$$$$$$$$$$$$$$$$$$$$",
"$$$$$$$$$$++++$$$$$$$$$$   $ %%####%% $   $$$$$$$$$$$$$$$$$$$$$$",
"$$$$$$$$$$++OO++++++++$$$$$$ %%    %% $$$$$$$$$$$$$$$$$$$$$$$$$$",
"$$$$$$$$$$++OO++++++++$$$$$$ %%    %% $$$$$$$$$$$$$$$$$$$$$$$$$$",
"$$$$$$$$$$++OOOOOO++++$$$$$$   $$$$   $$$$$$$$$$$$$$$$$$$$$$$$$$",
"$$$$$$$$$$++OOOOOO++++$$$$$$++$$$$$$$$$$$$$$$$$$$$$$$$$$$$$$$$$$",
"$$$$$$$$++OO$$$$$$$$$$++OO++OO$$$$$$$$$$$$$$$$$$$$$$$$$$$$$$$$$$",
"$$$$$$$$++OO$$$$$$$$$$++OO++OO$$$$$$$$$$$$$$$$$$$$$$$$$$$$$$$$$$",
"$$$$$$$$++$$$$$$$$$$$$$$++OOOO$$$$$$$$$$$$$$$$$$$$$$$$$$$$$$$$$$",
"$$$$$$$$++$$$$$$$$$$$$$$++OOOO$$$$$$$$$$$$$$$$$$$$$$$$$$$$$$$$$$",
"$$$$$$$$$$$$$$$$$$$$$$$$$$++OO$$$$$$$$$$$$$$$$$$$$$$$$$$$$$$$$$$",
"$$$$$$$$$$$$$$$$$$$$$$$$$$++OO$$$$$$$$$$$$$$$$$$$$$$$$$$$$$$$$$$",
"$$$$$$++$$$$$$$$$$$$$$$$$$$$++++$$$$$$$$$$$$$$$$$$$$$$$$$$$$$$$$",
"$$$$$$++$$$$$$$$$$$$$$$$$$$$++++$$$$$$$$$$$$$$$$$$$$$$$$$$$$$$$$",
"$$$$$$$$$$$$$$$$$$$$$$$$$$$$$$++$$$$$$$$$$$$$$$$$$$$$$$$$$$$$$$$",
"$$$$$$$$$$$$$$$$$$$$$$$$$$$$$$++$$$$$$$$$$$$$$$$$$$$$$$$$$$$$$$$",
"$$$$++$$$$$$$$$$$$$$$$$$$$$$$$$$++$$$$$$$$$$$$$$$$$$$$$$$$$$$$$$",
"$$$$++$$$$$$$$$$$$$$$$$$$$$$$$$$++$$$$$$$$$$$$$$$$$$$$$$$$$$$$$$",
"$$++++$$$$$$$$$$$$$$$$$$$$$$$$$$++OO$$$$$$$$$$$$$$$$$$$$$$$$$$$$",
"$$++++$$$$$$$$$$$$$$$$$$$$$$$$$$++OO$$$$$$$$$$$$$$$$$$$$$$$$$$$$",
"++OO$$$$$$$$$$$$$$$$$$$$$$$$$$$$$$OOOO++$$$$$$$$$$$$$$$$$$$$$$++",
"++OO$$$$$$$$$$$$$$$$$$$$$$$$$$$$$$OOOO++$$$$$$$$$$$$$$$$$$$$$$++",
"OO++$$$$$$$$$$$$$$$$$$$$$$$$$$$$$$OOOOOOOO++$$$$$$$$$$$$$$$$++@@",
"OO++$$$$$$$$$$$$$$$$$$$$$$$$$$$$$$OOOOOOOO++$$$$$$$$$$$$$$$$++@@"
};
