/* XPM */
static char *df3b20da5e7a4a42d29702f4f3a2e8cajd8mXbu22AmJM3XO[] = {
/* columns rows colors chars-per-pixel */
"64 64 9 1 ",
"  c #0C0F2A",
". c #44702D",
"X c #734C44",
"o c #B55945",
"O c #D07753",
"+ c #819447",
"@ c #A6B04F",
"# c #EB9661",
"$ c #FEE1B8",
/* pixels */
"oo################################ooOO##########OOOOooooOOoooooo",
"oo################################ooOO##########OOOOooooOOoooooo",
"OO################################OO##################OOOOOOOOoo",
"OO################################OO##################OOOOOOOOoo",
"OO################################OO####################OO####OO",
"OO################################OO####################OO####OO",
"OO##############################################################",
"OO##############################################################",
"oo##############################OO##############################",
"oo##############################OO##############################",
"ooOO############################OO########################OO####",
"ooOO############################OO########################OO####",
"OOoo#################     ####OOoo########    ############OOooOO",
"OOoo#################     ####OOoo########    ############OOooOO",
"##OOOO###############   ++  OO        ##  ++  ##########ooOO####",
"##OOOO###############   ++  OO        ##  ++  ##########ooOO####",
"####OOoo#############   ++++  @@@@@@@@  ++++  ##########OO######",
"####OOoo#############   ++++  @@@@@@@@  ++++  ##########OO######",
"########ooooooOOOO###   ++..@@@@@@@@@@@@..++  ##################",
"########ooooooOOOO###   ++..@@@@@@@@@@@@..++  ##################",
"########ooOOOO#######   ++..@@@@@@@@@@@@..++  ########OO########",
"########ooOOOO##########  ..@@@@@@@@@@@@..  ##########OO########",
"########OOOO############  ..@@@@@@@@@@@@..  ##########OO########",
"########OOOO#      #######  @@@@@@@@@@@@  ############OO########",
"########OO###      #######  @@@@@@@@@@@@  ##########OOooOO######",
"########OO#  XXXXXX  #####  ++@@@@@@@@++  ##########OOooOO######",
"######OO###  XXXXXX  #####  ++@@@@@@@@++  ooooOOOOOOooooooooOOOO",
"######OO###  XXXXXX  ###  ++++++@@@@++++++  ooOOOOOOooooooooOOOO",
"OOooooOO###  XXXXXX  ###  ++++++@@@@++++++  ####################",
"OOooooOO###  XXXXXX     @@@@++++++++++++@@@@  ##################",
"####OOoo###  XXXXXX     @@@@++++++++++++@@@@  ##################",
"####OOoo###  XXXXXX  @@@@@@@@@$$oooo$$@@@@@@++   ###############",
"######OO###  XXXXXX  @@@@@@@@@$$oooo$$@@@@@@++   ###############",
"######OO###  XXXXXX++@@@@@@@@@@@++++@@@@@@++++   ###############",
"########OO#  XXXXXX++@@@@@@@@@@@++++@@@@@@++++   ###############",
"########OO#  XXXXXX+++++++@@@@@@@@@@@@@@@@++++...  #############",
"###########  XXXXXX+++++++@@@@@@@@@@@@@@@@++++...  #############",
"#############  XXXX@@+++++@@@@@@@@@@@@@@@@++.....  #############",
"##########OO#  XXXX@@+++++@@@@@@@@@@@@@@@@++.....  #############",
"##########OO#  @@XX@@   XX++@@@@@@@@@@@@++XX.....  #############",
"##########OOO  @@XX@@   XX++@@@@@@@@@@@@++XX.....  #############",
"##########OOO  @@XX     XXXX++++++++++++XXXX.....  #############",
"##########OOo  @@XX     XXXX++++++++++++XXXX.....  #############",
"##########OOo      OO   XXXXooooooXXooooXXXX       #############",
"##########OOo      OO   XXXXooooooXXooooXXXX       #############",
"##########OOo      OO   XXXXooooooXXooooXXXX       #############",
"########OOoo#########   ..XXoooooooooooo++++  ##################",
"########OOoo#########   ..XXoooooooooooo++++  ##################",
"########OO###########   ....ooooooXXoo++@@@@@@   ###############",
"########OO###########   ....ooooooXXoo++@@@@@@   ###############",
"########################  ..ooooooXXoo++@@@@@@   ###############",
"########################  ..ooooooXXoo++@@@@@@   ###############",
"######OO################  ......        @@@@@@   ###############",
"######OO################  ......        @@@@@@   ###############",
"##########################....OO######  @@@@@@   ###############",
"##########################....OO######  @@@@@@   ###############",
"####OO##########################OO######         ###############",
"####OO##########################OO######         ###############",
"##OOOO##########################OOoo############################",
"##OOOO##########################OOoo############################",
"OOoo##############################ooooOO######################OO",
"OOoo##############################ooooOO######################OO",
"ooOO##############################ooooooooOO################OO@@",
"ooOO##############################ooooooooOO################OO@@"
};
