/* XPM */
static char *f6fed00695d34953821c7560a89dbf06b3ZNsq8BJhFCFud4[] = {
/* columns rows colors chars-per-pixel */
"64 64 9 1 ",
"  c #0C0F2A",
". c #44702D",
"X c #734C44",
"o c #B55945",
"O c #D07753",
"+ c #819447",
"@ c #A6B04F",
"# c #EB9661",
"$ c #FEE1B8",
/* pixels */
"oo################################ooOO##########OOOOooooOOoooooo",
"oo################################ooOO##########OOOOooooOOoooooo",
"OO################################OO##################OOOOOOOOoo",
"OO################################OO##################OOOOOOOOoo",
"OO################################OO####################OO####OO",
"OO################################OO####################OO####OO",
"OO##############################################################",
"OO##############################################################",
"oo##############################OO##############################",
"oo##############################OO##############################",
"ooOO############################OO########################OO####",
"ooOO############################OO########################OO####",
"OOoo#################     ####OOoo########    ############OOooOO",
"OOoo#################     ####OOoo########    ############OOooOO",
"##OOOO###############   ++  OO        ##  ++  ##########ooOO####",
"##OOOO###############   ++  OO        ##  ++  ##########ooOO####",
"####OOoo#############   ++++  @@@@@@@@  ++++  ##########OO######",
"####OOoo#############   ++++  @@@@@@@@  ++++  ##########OO######",
"########ooooooOOOO###   ++++  @@@@@@@@  ++++  ##################",
"########ooooooOOOO###   ++..@@@@@@@@@@@@..++  ##################",
"########ooOOOO#######   ++..@@@@@@@@@@@@..++  ########OO########",
"########ooOOOO##########  ..@@@@@@@@@@@@..  ##########OO########",
"########OOOO############  ..@@@@@@@@@@@@..  ##########OO########",
"########OOOO##############  @@@@@@@@@@@@  ############OO########",
"########OO################  @@@@@@@@@@@@  ##########OOooOO######",
"########OO################  ++@@@@@@@@++  ##########OOooOO######",
"######OO##################  ++@@@@@@@@++  ooooOOOOOOooooooooOOOO",
"######OO################  ++++++@@@@++++++  ooOOOOOOooooooooOOOO",
"OOooooOO################  ++++++@@@@++++++  ####################",
"OOooooOO#############   @@@@++++++++++++@@@@  ##################",
"####OOoo#############   @@@@++++++++++++@@@@  ##################",
"####OOoo#####        +++@@@@@@$$oooo$$@@@@@@@@   ###############",
"######OO#####        +++@@@@@@$$oooo$$@@@@@@@@   ###############",
"######OO###  XXXXXX..+++++@@@@@@++++@@@@@@@@@@+++  #############",
"########OO#  XXXXXX..+++++@@@@@@++++@@@@@@@@@@+++  #############",
"########OO#  XXXXXX.....++@@@@@@@@@@@@@@@@+++++++  #############",
"###########  XXXXXX.....++@@@@@@@@@@@@@@@@+++++++  #############",
"###########  XXXXXX.....++@@@@@@@@@@@@@@@@+++++++++  ###########",
"##########O  XXXXXX.....++@@@@@@@@@@@@@@@@+++++++++  ###########",
"##########OO#  XXXXXX+++XX++@@@@@@@@@@@@++XX@@+++++  ###########",
"##########OOO  XXXXXX+++XX++@@@@@@@@@@@@++XX@@+++++  ###########",
"##########OOOO#  XXXX+++XXXX++++++++++++XXXX@@+++@@  ###########",
"##########OOooO  XXXX+++XXXX++++++++++++XXXX@@+++@@  ###########",
"##########OOooO  XXXX+++XXXX++++++++++++XXXX@@+++@@  ###########",
"##########OOooo  ++XX   XXXXooooooXXooooXXXX  +++@@  ###########",
"##########OOooo  ++XX   XXXXooooooXXooooXXXX  +++@@  ###########",
"########OOoo###         ++XXooooooooooooXX++         ###########",
"########OOoo###         ++XXooooooooooooXX++         ###########",
"########OO###########   ++++ooooooXXoooo++++  ##################",
"########OO###########   ++++ooooooXXoooo++++  ##################",
"#####################   ++++ooooooXXoooo++++  ##################",
"#####################   ++++ooooooXXoooo++++  ##################",
"######OO#############   ++++++        ++++++  ##################",
"######OO#############   ++++++        ++++++  ##################",
"########################      OO####  ++++++  ##################",
"########################      OO####  ++++++  ##################",
"####OO##########################OO######++++####################",
"####OO##########################OO######++++####################",
"##OOOO##########################OOoo############################",
"##OOOO##########################OOoo############################",
"OOoo##############################ooooOO######################OO",
"OOoo##############################ooooOO######################OO",
"ooOO##############################ooooooooOO################OO@@",
"ooOO##############################ooooooooOO################OO@@"
};
